<svg xmlns="http://www.w3.org/2000/svg" viewBox="0 0 152.65 114.16"><title>favicon</title><path d="M284.64,249.16a7.81,7.81,0,0,0-4.48,2.78c-1.74,2.09-2.69,4.43-1.91,7.17a6.63,6.63,0,0,0,1.15,2.28,16.64,16.64,0,0,0,7.13,5.16,54.47,54.47,0,0,0,10.68,2.78,104.56,104.56,0,0,0,20.92.82c2.14-.08,4.27-.46,6.4-.7.5-.05,1-.07,1.49-.11l.09.3c-.38.24-.76.49-1.16.7A28.31,28.31,0,0,1,313,273.16c-1,0-2,.17-3,.18a83.25,83.25,0,0,1-23.39-3.09,20.49,20.49,0,0,1-10.91-7.54,8.46,8.46,0,0,1-1.27-8.53,13.69,13.69,0,0,1,4.76-6.34l.9-.69a9.72,9.72,0,0,0-4.49,1.78,12.66,12.66,0,0,0-5.7,9.23,10,10,0,0,0,3,8.08,23.54,23.54,0,0,0,10,5.95,63.08,63.08,0,0,0,12.87,2.89c3.36.4,6.74.75,10.13.93,3.68.19,7.37.23,11,.18,1.85,0,3.71-.37,5.56-.57.13,0,.26,0,.5.19a14.68,14.68,0,0,1-1.61,1,21.73,21.73,0,0,1-6.86,2,60.29,60.29,0,0,1-11.32.05,108.09,108.09,0,0,1-12.81-1.51,55.7,55.7,0,0,1-15.42-4.85,16.8,16.8,0,0,1-7.48-7.15c-2.72-5.17-2-10.18,1.31-14.86a30,30,0,0,1,2.83-3,10.73,10.73,0,0,0,1-1,18.45,18.45,0,0,0-5.62,2.69,18.93,18.93,0,0,0-6.62,7.78,10,10,0,0,0,.64,9.62,16.06,16.06,0,0,0,8.73,7.12c3.15,1.11,6.43,1.89,9.64,2.81a1.48,1.48,0,0,1,.79.47,9.47,9.47,0,0,1-1.3.19,42.13,42.13,0,0,1-9.58-.63,17.59,17.59,0,0,1-12.48-9.48c-.91-1.74-.82-3.6-.89-5.46-.17-4.65,2.12-8.25,5-11.54a17.89,17.89,0,0,1,5.36-4.51c3.55-1.74,7.21-3.18,11.27-2.89a26.58,26.58,0,0,1,8.13,1.61,13,13,0,0,1,6.07,4.87,6.66,6.66,0,0,1,.68,1.26c.66,1.59.38,2.47-1.18,3.63-.15-.36-.3-.69-.44-1-.48-1.16-.67-1.28-1.94-1.24a2.66,2.66,0,0,0-2.38,4.14,4.05,4.05,0,0,0,2.76,2.11,6.47,6.47,0,0,0,7.6-5.46c.51-4.07-1.47-6.89-4.49-9.15A22.83,22.83,0,0,0,279,238.82,29,29,0,0,0,259,246a69.29,69.29,0,0,0-5.92,6.07,65.22,65.22,0,0,1-11,10,18.78,18.78,0,0,1-9.15,3.48,7.21,7.21,0,0,1-.9-.06c.26-.3.39-.56.59-.65a40.74,40.74,0,0,0,11.26-8.35c2.44-2.43,4.73-5,7-7.62a43.24,43.24,0,0,1,14.61-11.41A29.72,29.72,0,0,1,282,235a60.81,60.81,0,0,1,16.78,4.83c3.81,1.69,7.52,3.58,11.24,5.45a24.66,24.66,0,0,1,8.23,7.27c1.11,1.43,2.12,2.93,3.17,4.4l-.21.26a10.93,10.93,0,0,1-1-.61c-2.17-1.73-4.32-3.5-6.5-5.21a46.88,46.88,0,0,0-10.13-6c-1.53-.67-3-1.32-4.69-1.91a14.84,14.84,0,0,1,2.23,9.36c.75.36,1.45.67,2.12,1,2.58,1.37,5.13,2.8,7.72,4.14a26.85,26.85,0,0,0,9.51,3.09c1,.1,2,.12,3,.18a4.13,4.13,0,0,1,1.39.25,18.78,18.78,0,0,1-5.27,1.21c-5.52.5-10.37-1.38-15-4l-4.7-2.64a13.86,13.86,0,0,1-6.14,5.32,74.24,74.24,0,0,0,26.61,4.32,2.84,2.84,0,0,1-.6.35,44.94,44.94,0,0,1-12.82,1.19,53.74,53.74,0,0,1-9.39-1.11,37.46,37.46,0,0,1-9.36-3.6,15,15,0,0,1-4.44-3.84,6.24,6.24,0,0,1-.05-8.5C284,250,284.22,249.67,284.64,249.16Z" transform="translate(-173.46 -193.05)" style="fill:#298fc2"/><path d="M229,206.43c-1.72.86-1.51,2.5-2,3.79s-.3,1.28-1.55,1.33c-1.65.07-1.76.14-2.66,1.85.36.31.76.62,1.12,1a8.7,8.7,0,0,1,2.71,4.8,14,14,0,0,0,1.68,4.27l2.53-2.87a11,11,0,0,1-.39-1.55,2.24,2.24,0,0,1,1.49-2.63c1.9-.72,2.35-.55,3.47,1.2a1.71,1.71,0,0,1,0,2.12c-.21.31-.41.65-.63.95-1.3,1.78-2.55,3.6-3.92,5.31a18.75,18.75,0,0,1-2.92,2.92c-.87.69-1.52.47-2.22-.4a3.67,3.67,0,0,1-.9-2.37,6.61,6.61,0,0,0-.1-1.46,14.27,14.27,0,0,0-1.19,3.77c-.39,1.33-.65,2.7-1,4l-.94,4.07-1.59.08c1.13.81,2.12,1.45,3,2.18,2.21,1.75,4.44,3.49,6.56,5.35a27.38,27.38,0,0,1,2.71,3.15,2.5,2.5,0,0,1,.25,3.07c-1.06,1.82-2.17,3.62-3.26,5.42l-4.72,7.73a6.85,6.85,0,0,0-.47.89c-.54,1.34-1.25,2.63-.11,4.09a13.13,13.13,0,0,1,1.17,2.61,5.07,5.07,0,0,0,2.09,2.48c.55.3,1.14.72.88,1.46s-.91.58-1.49.59a8,8,0,0,1-5.48-1.74,14.43,14.43,0,0,0-4.37-2.43c-1.24-.44-1.47-1-1.12-2.2a3.1,3.1,0,0,1,.54-1.16c1-1.22,1.79-2.7,3.22-3.59a2,2,0,0,0,.72-1c.62-1.8,1.2-3.63,1.77-5.45.47-1.51.8-3.07,1.39-4.52a33,33,0,0,1,2-3.6c-3.92-.91-7.15-3.53-11-4.79l2.88,1.67a13.81,13.81,0,0,1-1,1.56c-2.43,2.95-4.92,5.87-7.35,8.82-1.53,1.85-3.66,2.73-5.72,3.75-3.6,1.8-7.19,3.62-10.8,5.41a3.07,3.07,0,0,0-1.9,2.3,10.66,10.66,0,0,1-1.29,2.71,4.24,4.24,0,0,0-.59,2.89,14.63,14.63,0,0,1,0,2.14,6.26,6.26,0,0,1-1.57-.74,7.21,7.21,0,0,1-2.5-4.55c-.16-1.86-.4-3.7-.58-5.56-.13-1.4.27-1.92,1.66-2.15,1-.17,2-.27,2.76.6.57-.35,1-.69,1.56-.94a19.52,19.52,0,0,0,5.24-4,14.93,14.93,0,0,1,6-3.88,4.28,4.28,0,0,0,2.64-2.27c.87-1.7,2-3.3,2.08-5.3a2.25,2.25,0,0,1,.5-1.18c1.85-2.28,2.48-5,2.95-7.81a41.21,41.21,0,0,1,1.26-4.55c-.37,0-.91.1-1.45.18a1.13,1.13,0,0,1-1.37-.75c-.17-.45-.4-.88-.53-1.33a19.64,19.64,0,0,0-2.45-5c-1-1.54-1.77-3.17-2.65-4.77A3.54,3.54,0,0,1,202,222c-.9-2.24-.59-3.33,1.31-4.86a32.1,32.1,0,0,1,8.13-4.53,8.44,8.44,0,0,1,3.29-.9,3.18,3.18,0,0,1,3.41,2.28,5.26,5.26,0,0,0,.4.65,3.37,3.37,0,0,0-1.54-3c.36-.46.68-.87,1-1.29a2.68,2.68,0,0,0,0-3.56c-.28-.39-.57-.77-.81-1.18a6.28,6.28,0,0,1-.46-5.15,5.31,5.31,0,0,1,4.78-3.61,6.77,6.77,0,0,1,4.55,1,10,10,0,0,1,1.88,1.91.67.67,0,0,1,0,1,.73.73,0,0,0-.11.65C228.28,203.07,227.8,204.86,229,206.43Zm-17.38,26.32.29.1a6.83,6.83,0,0,0,.55-1.32,8.9,8.9,0,0,0,.11-1.86c-.08-2.68-.2-5.35-.28-8-.06-2-.05-2,1-3.44l-6.8,2.09c.47,1.42,1,2.86,1.41,4.32a6.58,6.58,0,0,0,3.17,4.24,1.51,1.51,0,0,1,.81,1.8C211.81,231.35,211.74,232.05,211.64,232.75Z" transform="translate(-173.46 -193.05)" style="fill:#298fc2"/><path d="M286.21,218.05c-5.63-3.87-10.92-8.12-14.93-13.8l-.32.21,3,8.8-.28.2a5.83,5.83,0,0,1-.78-.61,31.09,31.09,0,0,1-6-10.08c-.62-1.71-1.32-3.39-2.07-5-.46-1-1.07-1.12-1.92-.45a18.45,18.45,0,0,0-1.39,1.25c-3.17,3.06-6.35,6.12-9.49,9.21-1,1-1.81,2.11-2.82,3.06-2.86,2.69-5.76,5.33-8.68,8a4.9,4.9,0,0,1-2.4,1.32,2.42,2.42,0,0,1,.92-1.64c2.45-2.88,4.86-5.8,7.42-8.58,4.44-4.83,9-9.58,13.47-14.35a14.15,14.15,0,0,1,2-1.63,3.68,3.68,0,0,1,4.55-.09,32.3,32.3,0,0,1,6.47,5.65c1.42,1.62,2.78,3.29,4.18,4.93,1.94,2.27,3.34,2.5,5.84.88.92-.59,1.72-1.38,2.63-2a7.43,7.43,0,0,1,2.38-1.24,3.36,3.36,0,0,1,3.68,1.36c.17.23.41.41.56.64,2.25,3.47,5.31,6.15,8.42,8.79a98.4,98.4,0,0,1,9.76,9.93c3.62,4.08,7.36,8,11.09,12,.81.87,1.77,1.6,2.66,2.4a1.57,1.57,0,0,1,.5,1c-.41-.13-.84-.23-1.24-.39a21.46,21.46,0,0,1-7-4.48c-3-2.89-5.86-5.91-8.71-8.95a108.48,108.48,0,0,0-12.61-11.73,3.55,3.55,0,0,0-.45-.23c.4,2.27.66,4.48,1.24,6.61a13.34,13.34,0,0,0,1.84,3.55,89.61,89.61,0,0,1,6.08,11.4,9.25,9.25,0,0,1,.25,1c-.54-.25-.93-.31-1.12-.54a36.5,36.5,0,0,1-2.6-3.24,52.64,52.64,0,0,0-6.11-7.61,4.55,4.55,0,0,1-1.25-2.37c-.6-3.14-1.22-6.29-1.95-9.41a32.63,32.63,0,0,0-1.45-4.35,3.32,3.32,0,0,0-1.85-2.14,5.42,5.42,0,0,0-.85.46c-1.21.94-2.43,1.87-3.59,2.86-1.46,1.23-1.56,1.84-.57,3.44s1.94,3,2.91,4.45c.28.43.53.88.8,1.32Z" transform="translate(-173.46 -193.05)" style="fill:#298fc2"/><path d="M173.46,278.38c2.32.32,4.38.7,6.45.89a61.33,61.33,0,0,0,11.89.24q5.91-.63,11.84-1.19c2-.2,4.09-.46,6.14-.54a50.29,50.29,0,0,1,14.33,1.78c5.87,1.45,11.53,3.53,17.23,5.53a30.15,30.15,0,0,0,17.51,1.05c5-1.22,10-2.49,15.07-3.66a72.54,72.54,0,0,1,10.51-1.41c4.94-.41,9.71.49,14.51,1.38,3.71.69,7.43,1.49,11.23,1.23,2.62-.18,5.22-.62,7.83-.94a1.59,1.59,0,0,1,1.05.26,15.15,15.15,0,0,1-1.6,1.3,17.23,17.23,0,0,1-8,2.39,54.08,54.08,0,0,1-14-1.35,47.62,47.62,0,0,0-13.14-.89,68.59,68.59,0,0,0-9.58,1.75c-4.57,1-9.1,2.26-13.67,3.34a32.61,32.61,0,0,1-17.28-.79c-3.94-1.21-7.79-2.67-11.7-4a76.54,76.54,0,0,0-15.36-3.53,42.19,42.19,0,0,0-10,.29c-3.17.4-6.35.82-9.54,1.08a68.49,68.49,0,0,1-7.31.19,28,28,0,0,1-13.79-3.9A6,6,0,0,1,173.46,278.38Z" transform="translate(-173.46 -193.05)" style="fill:#298fc2"/><path d="M178.21,287c1,.08,1.95.1,2.92.25a50,50,0,0,0,19.23-.79,43.74,43.74,0,0,1,9.23-1.21c4.68.05,9.37.28,13.87,1.85q6.16,2.16,12.37,4.21a44.29,44.29,0,0,0,16.1,2.43,47.91,47.91,0,0,0,10-1.79c3.1-.82,6.19-1.66,9.3-2.46a36.65,36.65,0,0,1,7.67-.93,74,74,0,0,1,14.56,1.33,47.09,47.09,0,0,0,9.83,1c2.38-.13,4.76-.42,7.14-.63l1.63-.15c-.07.76-.59,1-1.05,1.34a17,17,0,0,1-7,2.4,34,34,0,0,1-10.56-.43,105.58,105.58,0,0,0-12.64-1.65c-4.72-.17-9.19,1-13.67,2.29-3.62,1.06-7.31,1.88-11,2.76a13,13,0,0,1-2.42.22c-1.3,0-2.6-.06-3.89,0-5.31.3-10.37-.92-15.35-2.53-3.51-1.14-6.95-2.47-10.45-3.64a41.14,41.14,0,0,0-15.83-2.15c-2.95.19-5.88.75-8.8,1.21a55.87,55.87,0,0,1-9.11,1,22.35,22.35,0,0,1-10.62-2.62c-.34-.19-.67-.38-1-.59a6,6,0,0,1-.55-.45Z" transform="translate(-173.46 -193.05)" style="fill:#298fc2"/><path d="M200.24,302.51c1.42-.19,2.83-.43,4.25-.56a57.13,57.13,0,0,0,9.68-2,31.69,31.69,0,0,1,9.47-1.47,55.41,55.41,0,0,1,9.91,1.48c5.36,1.2,10.73,2.4,16.13,3.44a44.22,44.22,0,0,0,11.43.73c3.43-.23,6.86-.51,10.29-.75a6.41,6.41,0,0,1,1.22.13l.09.34c-.43.22-.84.47-1.29.66a34.24,34.24,0,0,1-8.75,2.19,53.37,53.37,0,0,1-12.18.26,71.63,71.63,0,0,1-8.18-1.49c-4.73-1-9.46-2-14.17-3a26.13,26.13,0,0,0-11.1.12c-2.63.52-5.26,1-7.9,1.43a19,19,0,0,1-7.82-.52,6.09,6.09,0,0,1-1.19-.55Z" transform="translate(-173.46 -193.05)" style="fill:#298fc2"/><path d="M301.3,298.53a15.51,15.51,0,0,1-7.06,2c-4.28.29-8.47-.44-12.69-.87a58.52,58.52,0,0,0-17.57.66,39.91,39.91,0,0,1-9.11,1c-1.62-.05-3.24-.19-4.86-.32a1.29,1.29,0,0,1-.86-.53c1.68-.25,3.38-.43,5-.78,3.94-.81,7.85-1.72,11.78-2.55a41.05,41.05,0,0,1,11.09-1.25c3.24.2,6.47.56,9.69.95a91.45,91.45,0,0,0,11.56,1.05c1,0,2,.18,2.94.27Z" transform="translate(-173.46 -193.05)" style="fill:#298fc2"/><path d="M231,233.59a8.86,8.86,0,0,1,1.14-.69,24.57,24.57,0,0,0,7.71-5.64c4.15-4.24,8.59-8.18,13-12.17a80.38,80.38,0,0,0,9.31-9.94c.26-.33.55-.64,1-1.17a5.91,5.91,0,0,1-.12.94,27.74,27.74,0,0,1-8.49,13.39q-6.77,5.77-13.59,11.46a20.82,20.82,0,0,1-5.31,3.38A6.87,6.87,0,0,1,231,233.59Z" transform="translate(-173.46 -193.05)" style="fill:#298fc2"/><path d="M266.79,279.43a11.75,11.75,0,0,1-4.33-.48,69.5,69.5,0,0,1-10.29-3.55c-2.79-1.13-5.56-2.39-8.59-2.7-1.85-.19-3.72-.17-5.58-.21-1.56,0-3.11,0-4.68-.17a18.79,18.79,0,0,1,9.15-2.16,26,26,0,0,1,9.72,1.87c-2.61-4-3.42-7.59.25-11.13a5.44,5.44,0,0,1,.16.94c0,.72,0,1.44,0,2.16-.15,3.18,1.23,5.73,3.28,8a22.13,22.13,0,0,0,6.23,4.54l4.8,2.55Z" transform="translate(-173.46 -193.05)" style="fill:#298fc2"/><path d="M292.43,231.62a3.51,3.51,0,0,1-.56,0c-3.74-1-7.47-2.07-11.23-3a23.4,23.4,0,0,1-9.75-5.28c-.9-.79-1.86-1.5-2.8-2.23a3.33,3.33,0,0,0-3.66-.34c-2.08,1-4.13,2-6.23,2.94a18.41,18.41,0,0,1-5.2,1.52,2.47,2.47,0,0,1,1.33-1.5q4.11-2.76,8.24-5.5c.32-.21.68-.36,1-.58a4.62,4.62,0,0,1,5-.19,15.9,15.9,0,0,1,3.44,2.3c3.1,3,6.82,4.9,10.64,6.71,3.11,1.48,6.18,3.06,9.26,4.59a5.72,5.72,0,0,1,.58.37Z" transform="translate(-173.46 -193.05)" style="fill:#298fc2"/><path d="M185.42,296.25c1.47-.06,2.93-.15,4.4-.15a43.41,43.41,0,0,0,8.79-1.24c3.74-.79,7.47-1.68,11.23-2.33a28.4,28.4,0,0,1,13.86,1.23,21.52,21.52,0,0,1,2,.89l-.09.33c-1.15-.13-2.29-.35-3.43-.38a65.8,65.8,0,0,0-6.88,0c-5.76.41-11.22,2.36-16.86,3.41-3.79.71-7.6,1-11.33-.44-.64-.24-1.24-.6-1.86-.9Z" transform="translate(-173.46 -193.05)" style="fill:#298fc2"/><path d="M239.32,238.41c2.09-.79,4.21-1.52,6.27-2.37,4.28-1.76,8.54-3.6,12.81-5.39,1.46-.6,2.93-1.16,4.42-1.7a11.44,11.44,0,0,1,5.1-.44A15,15,0,0,1,270,229v.32a7.63,7.63,0,0,1-1.26,0,10.49,10.49,0,0,0-6.31,1.52c-2.11,1.12-4.17,2.35-6.27,3.48a38.16,38.16,0,0,1-15.58,4.49,8.24,8.24,0,0,1-1.2-.11Z" transform="translate(-173.46 -193.05)" style="fill:#298fc2"/><path d="M236.26,278.14a10.11,10.11,0,0,1,1.77-.36c3.4,0,6.82-.23,10.16.55a58.5,58.5,0,0,1,6.14,2,55.51,55.51,0,0,1,6,2.45,4.36,4.36,0,0,1-.86.17,32.35,32.35,0,0,1-9.6-1.5c-2.65-.78-5.34-1.49-8-2.1-1.57-.36-3.21-.45-4.81-.68a7,7,0,0,1-.79-.18Z" transform="translate(-173.46 -193.05)" style="fill:#298fc2"/><path d="M195.27,273.82c5.46-.74,10.92-1.44,16.41-.32A37.86,37.86,0,0,1,195.27,273.82Z" transform="translate(-173.46 -193.05)" style="fill:#298fc2"/><path d="M263.73,256.81a23.67,23.67,0,0,1-.38,6A5.11,5.11,0,0,1,263.73,256.81Z" transform="translate(-173.46 -193.05)" style="fill:#298fc2"/></svg>