<svg xmlns="http://www.w3.org/2000/svg" viewBox="0 0 240.06 239.99"><title>logo</title><path d="M283.91,213.08a7.75,7.75,0,0,0-4.49,2.78c-1.74,2.08-2.68,4.43-1.91,7.17a6.63,6.63,0,0,0,1.15,2.28,16.81,16.81,0,0,0,7.13,5.16,53.94,53.94,0,0,0,10.68,2.77,103.83,103.83,0,0,0,20.92.83c2.14-.08,4.27-.47,6.41-.7.49-.06,1-.08,1.48-.11l.1.3c-.39.23-.77.49-1.17.7a28.31,28.31,0,0,1-11.92,2.82c-1,0-2,.17-3,.17a82.52,82.52,0,0,1-23.39-3.09A20.46,20.46,0,0,1,275,226.63a8.46,8.46,0,0,1-1.27-8.53,13.64,13.64,0,0,1,4.77-6.34l.89-.69a9.68,9.68,0,0,0-4.48,1.78,12.64,12.64,0,0,0-5.71,9.23,10,10,0,0,0,3,8.08,23.61,23.61,0,0,0,10,6A63.5,63.5,0,0,0,295.11,239c3.37.39,6.75.75,10.13.92,3.68.2,7.37.23,11.05.19,1.86,0,3.71-.37,5.56-.57.13,0,.26,0,.5.19a15.23,15.23,0,0,1-1.61,1,21.65,21.65,0,0,1-6.85,2,60.29,60.29,0,0,1-11.32.06,107.6,107.6,0,0,1-12.81-1.51,55.46,55.46,0,0,1-15.43-4.86,16.83,16.83,0,0,1-7.48-7.14c-2.72-5.18-2-10.19,1.32-14.86a31.05,31.05,0,0,1,2.82-3,10.73,10.73,0,0,0,1-1,19.69,19.69,0,0,0-12.24,10.47,10,10,0,0,0,.65,9.62,15.93,15.93,0,0,0,8.73,7.11c3.15,1.12,6.42,1.89,9.64,2.82a1.43,1.43,0,0,1,.78.47,11.47,11.47,0,0,1-1.29.19,42.13,42.13,0,0,1-9.58-.64A17.53,17.53,0,0,1,256.17,231c-.91-1.74-.83-3.6-.9-5.46-.17-4.66,2.12-8.25,5-11.55a17.9,17.9,0,0,1,5.37-4.5c3.54-1.74,7.2-3.18,11.26-2.9a27,27,0,0,1,8.14,1.62,13,13,0,0,1,6.06,4.87,6.66,6.66,0,0,1,.68,1.26c.66,1.58.38,2.47-1.18,3.62-.15-.35-.3-.68-.44-1-.47-1.16-.66-1.29-1.93-1.24a2.65,2.65,0,0,0-2.38,4.13,4,4,0,0,0,2.75,2.11,6.45,6.45,0,0,0,7.6-5.45c.51-4.07-1.46-6.89-4.49-9.15a22.83,22.83,0,0,0-13.52-4.58,29,29,0,0,0-20,7.14,69.18,69.18,0,0,0-5.91,6.07,65.28,65.28,0,0,1-11,10.05,18.88,18.88,0,0,1-9.15,3.48,7.21,7.21,0,0,1-.9-.06c.27-.3.39-.56.59-.66a40.36,40.36,0,0,0,11.26-8.34c2.44-2.44,4.73-5,7-7.62a43.12,43.12,0,0,1,14.61-11.41,29.74,29.74,0,0,1,16.54-2.45,61.51,61.51,0,0,1,16.78,4.83c3.8,1.69,7.52,3.59,11.23,5.46a24.79,24.79,0,0,1,8.24,7.27c1.1,1.42,2.11,2.93,3.17,4.4l-.22.25a9.06,9.06,0,0,1-1-.61c-2.17-1.73-4.31-3.49-6.5-5.21a46.2,46.2,0,0,0-10.13-6c-1.52-.67-3.05-1.33-4.69-1.91a14.83,14.83,0,0,1,2.23,9.36c.76.36,1.45.67,2.12,1,2.58,1.38,5.13,2.81,7.73,4.15a26.52,26.52,0,0,0,9.5,3.08c1,.11,2,.13,3,.19a4.28,4.28,0,0,1,1.39.24,18.45,18.45,0,0,1-5.27,1.22c-5.52.5-10.36-1.39-15-4l-4.7-2.64a14,14,0,0,1-6.14,5.32,74.15,74.15,0,0,0,26.6,4.32,2.42,2.42,0,0,1-.6.34,45,45,0,0,1-12.82,1.2,53.86,53.86,0,0,1-9.39-1.11,37.46,37.46,0,0,1-9.36-3.6,15.1,15.1,0,0,1-4.43-3.84,6.22,6.22,0,0,1-.05-8.5Z" transform="translate(-129.07 -132.13)" style="fill:#298fc2"/><path d="M228.28,170.35c-1.71.85-1.51,2.5-2,3.79s-.3,1.28-1.54,1.33c-1.66.07-1.77.14-2.67,1.84.36.32.76.63,1.13,1a8.68,8.68,0,0,1,2.7,4.8,14.15,14.15,0,0,0,1.68,4.26l2.53-2.86a11,11,0,0,1-.38-1.56,2.21,2.21,0,0,1,1.48-2.62c1.9-.72,2.35-.55,3.47,1.19a1.74,1.74,0,0,1,0,2.13c-.22.31-.42.64-.64,1-1.3,1.78-2.54,3.6-3.92,5.31a18.75,18.75,0,0,1-2.92,2.92c-.87.68-1.52.46-2.22-.4a3.67,3.67,0,0,1-.9-2.37,7.25,7.25,0,0,0-.09-1.46,13.93,13.93,0,0,0-1.2,3.77c-.39,1.33-.65,2.7-1,4.05l-.94,4.07-1.59.08c1.13.8,2.12,1.45,3,2.18,2.21,1.75,4.44,3.48,6.56,5.35a27.38,27.38,0,0,1,2.71,3.15,2.48,2.48,0,0,1,.25,3.07c-1.06,1.82-2.17,3.61-3.26,5.41l-4.71,7.73a5.42,5.42,0,0,0-.47.89c-.55,1.35-1.25,2.63-.12,4.1a13.16,13.16,0,0,1,1.18,2.61,5,5,0,0,0,2.09,2.48c.54.3,1.13.72.87,1.45s-.91.59-1.49.6a8.05,8.05,0,0,1-5.48-1.75,14.29,14.29,0,0,0-4.37-2.42c-1.24-.44-1.47-1-1.12-2.2a3.14,3.14,0,0,1,.54-1.17c1-1.21,1.79-2.69,3.22-3.58a2.06,2.06,0,0,0,.73-1c.62-1.81,1.19-3.63,1.76-5.45.47-1.51.8-3.07,1.39-4.53a32.86,32.86,0,0,1,2-3.59c-3.92-.91-7.15-3.54-11-4.79l2.88,1.66a15,15,0,0,1-1,1.56c-2.44,3-4.92,5.87-7.36,8.83-1.52,1.85-3.66,2.73-5.72,3.75-3.6,1.79-7.19,3.62-10.8,5.4a3.13,3.13,0,0,0-1.9,2.3,10.57,10.57,0,0,1-1.29,2.72,4.3,4.3,0,0,0-.59,2.89,13.24,13.24,0,0,1,0,2.13,6.3,6.3,0,0,1-1.57-.73,7.19,7.19,0,0,1-2.49-4.55c-.17-1.86-.41-3.71-.58-5.56-.14-1.4.27-1.92,1.66-2.16,1-.17,2-.27,2.75.6.58-.35,1.05-.69,1.56-.93a19.57,19.57,0,0,0,5.24-4,15,15,0,0,1,6-3.89,4.29,4.29,0,0,0,2.64-2.26c.86-1.71,2-3.3,2.07-5.31a2.19,2.19,0,0,1,.5-1.17c1.85-2.28,2.48-5,3-7.81a40.09,40.09,0,0,1,1.27-4.55c-.38,0-.92.1-1.45.18a1.14,1.14,0,0,1-1.38-.75c-.17-.45-.4-.88-.53-1.34a20,20,0,0,0-2.44-5c-1-1.54-1.78-3.17-2.66-4.77a2.76,2.76,0,0,1-.18-.39c-.91-2.25-.6-3.34,1.3-4.87a32.55,32.55,0,0,1,8.13-4.52,8.54,8.54,0,0,1,3.29-.9,3.19,3.19,0,0,1,3.42,2.28,4.28,4.28,0,0,0,.4.64,3.37,3.37,0,0,0-1.54-2.94c.35-.46.68-.87,1-1.29a2.67,2.67,0,0,0,0-3.56c-.28-.39-.57-.77-.81-1.18a6.26,6.26,0,0,1-.45-5.16,5.28,5.28,0,0,1,4.77-3.6,6.75,6.75,0,0,1,4.55,1,10.42,10.42,0,0,1,1.89,1.92.66.66,0,0,1,0,1,.79.79,0,0,0-.11.66C227.55,167,227.07,168.77,228.28,170.35Zm-17.37,26.32.28.1a6.92,6.92,0,0,0,.55-1.33,8.77,8.77,0,0,0,.11-1.85c-.08-2.68-.19-5.35-.28-8-.06-2,0-2,1-3.44l-6.79,2.1c.47,1.42,1,2.85,1.41,4.32a6.58,6.58,0,0,0,3.16,4.24,1.53,1.53,0,0,1,.82,1.8C211.07,195.27,211,196,210.91,196.67Z" transform="translate(-129.07 -132.13)" style="fill:#298fc2"/><path d="M134.84,284.66c-1.21.22-1.28.23-1.53-.83-.84-3.59-1.72-7.17-2.4-10.78a107.39,107.39,0,0,1-1.53-12.67,117.14,117.14,0,0,1-.11-15.22,120,120,0,0,1,25.85-67.74,120,120,0,0,1,72.21-43.36,117.14,117.14,0,0,1,12.95-1.61,129.77,129.77,0,0,1,16.38-.11A114.9,114.9,0,0,1,283,137a120.64,120.64,0,0,1,19.75,7.79,120.87,120.87,0,0,1,52.13,50.69,116.55,116.55,0,0,1,12.68,37.65c.53,3.5.82,7,1.17,10.54a101.76,101.76,0,0,1,.17,15.22,114.06,114.06,0,0,1-4.42,26.25,2.62,2.62,0,0,1-.2.42,2.32,2.32,0,0,1-.38-.06c-.22-.08-.43-.18-.69-.29,8.11-30.28,5.65-59.51-8.66-87.47a116.28,116.28,0,0,0-45.43-48,118.48,118.48,0,0,0-127,4.37,116.71,116.71,0,0,0-44.73,57.78C128.77,235.83,128.22,260.13,134.84,284.66Z" transform="translate(-129.07 -132.13)" style="fill:#298fc2"/><path d="M285.47,182c-5.62-3.87-10.92-8.12-14.93-13.8l-.32.21,3,8.8-.28.2a5.18,5.18,0,0,1-.78-.62,30.74,30.74,0,0,1-5.95-10.07c-.63-1.71-1.33-3.39-2.08-5.05-.46-1-1.07-1.12-1.92-.44-.48.39-.94.81-1.39,1.24-3.17,3.07-6.35,6.12-9.49,9.22-1,1-1.81,2.11-2.82,3.06-2.86,2.69-5.76,5.33-8.67,7.95a5.07,5.07,0,0,1-2.41,1.33c0-.82.55-1.21.92-1.65,2.45-2.88,4.87-5.79,7.42-8.57,4.44-4.83,9-9.59,13.47-14.35a14.43,14.43,0,0,1,2-1.64,3.69,3.69,0,0,1,4.54-.09,32,32,0,0,1,6.47,5.66c1.42,1.62,2.78,3.29,4.18,4.93,1.94,2.27,3.34,2.5,5.85.88.92-.6,1.71-1.38,2.62-2a7.24,7.24,0,0,1,2.38-1.24,3.37,3.37,0,0,1,3.68,1.35c.17.24.41.41.57.65,2.24,3.47,5.3,6.15,8.41,8.79a98.3,98.3,0,0,1,9.76,9.92c3.62,4.09,7.36,8.06,11.09,12,.81.87,1.78,1.6,2.66,2.4a1.52,1.52,0,0,1,.51,1,12.91,12.91,0,0,1-1.25-.38,21.28,21.28,0,0,1-7-4.49c-3-2.88-5.87-5.9-8.72-8.94a108.48,108.48,0,0,0-12.61-11.73,2.58,2.58,0,0,0-.45-.23c.41,2.26.66,4.48,1.24,6.61a13.17,13.17,0,0,0,1.85,3.54,91.65,91.65,0,0,1,6.07,11.41,8.59,8.59,0,0,1,.25,1c-.53-.25-.92-.31-1.12-.54a36.5,36.5,0,0,1-2.6-3.24,52.64,52.64,0,0,0-6.11-7.61,4.47,4.47,0,0,1-1.24-2.37c-.61-3.15-1.23-6.29-1.95-9.41a35.78,35.78,0,0,0-1.45-4.35,3.32,3.32,0,0,0-1.86-2.14,6.32,6.32,0,0,0-.85.45c-1.21.94-2.42,1.87-3.59,2.86-1.45,1.23-1.56,1.85-.57,3.45s1.94,3,2.91,4.44c.28.44.53.89.8,1.33Z" transform="translate(-129.07 -132.13)" style="fill:#298fc2"/><path d="M172.72,242.3c2.33.32,4.38.7,6.45.88a60.58,60.58,0,0,0,11.89.24q5.92-.61,11.84-1.18c2-.2,4.09-.46,6.14-.55a50.42,50.42,0,0,1,14.34,1.79c5.87,1.45,11.53,3.53,17.22,5.52a30.08,30.08,0,0,0,17.51,1.06c5-1.23,10-2.49,15.07-3.66A72.54,72.54,0,0,1,283.69,245c4.95-.41,9.72.49,14.51,1.38,3.72.68,7.43,1.49,11.24,1.23,2.61-.18,5.21-.62,7.82-.94a1.48,1.48,0,0,1,1.05.26,16.52,16.52,0,0,1-1.6,1.3,17.3,17.3,0,0,1-8,2.39,54.55,54.55,0,0,1-14-1.35,48,48,0,0,0-13.14-.9,71.63,71.63,0,0,0-9.58,1.75c-4.57,1-9.1,2.26-13.66,3.34a32.45,32.45,0,0,1-17.29-.79c-3.94-1.2-7.79-2.66-11.7-3.95A76.54,76.54,0,0,0,214,245.18a42.1,42.1,0,0,0-10,.29c-3.18.39-6.36.82-9.55,1.07a65.85,65.85,0,0,1-7.3.2,27.88,27.88,0,0,1-13.8-3.91A5.45,5.45,0,0,1,172.72,242.3Z" transform="translate(-129.07 -132.13)" style="fill:#298fc2"/><path d="M177.47,251c1,.08,2,.1,2.92.25a54.38,54.38,0,0,0,7.86.57,53.09,53.09,0,0,0,11.38-1.37,43.72,43.72,0,0,1,9.22-1.2c4.69,0,9.37.28,13.87,1.85q6.18,2.16,12.38,4.21a44.24,44.24,0,0,0,16.09,2.43,48.12,48.12,0,0,0,10-1.79c3.09-.82,6.19-1.67,9.29-2.46a36.09,36.09,0,0,1,7.68-.93,74,74,0,0,1,14.55,1.33,46.48,46.48,0,0,0,9.83,1c2.39-.12,4.76-.41,7.14-.62l1.63-.16c-.06.77-.59,1-1.05,1.34a17,17,0,0,1-7,2.41,34.4,34.4,0,0,1-10.57-.43,103.33,103.33,0,0,0-12.64-1.65c-4.71-.17-9.19,1-13.67,2.28-3.62,1.07-7.31,1.89-11,2.76A11.47,11.47,0,0,1,253,261c-1.29,0-2.59-.05-3.88,0-5.32.31-10.38-.91-15.36-2.53-3.51-1.13-7-2.46-10.44-3.63a41.22,41.22,0,0,0-15.84-2.15c-3,.19-5.87.75-8.8,1.2a54.68,54.68,0,0,1-9.11,1,22.36,22.36,0,0,1-10.62-2.63c-.34-.18-.67-.38-1-.59s-.36-.29-.55-.44Z" transform="translate(-129.07 -132.13)" style="fill:#298fc2"/><path d="M199.5,266.43c1.42-.19,2.83-.43,4.25-.56a56.93,56.93,0,0,0,9.68-2,31.79,31.79,0,0,1,9.47-1.47,54.52,54.52,0,0,1,9.91,1.48c5.37,1.19,10.74,2.39,16.14,3.44a44.58,44.58,0,0,0,11.42.73l10.29-.75a6.32,6.32,0,0,1,1.22.13l.09.33c-.43.23-.84.48-1.28.67a34.45,34.45,0,0,1-8.75,2.19,52.9,52.9,0,0,1-12.19.25,69.85,69.85,0,0,1-8.18-1.48c-4.73-1-9.46-2-14.17-3a26.13,26.13,0,0,0-11.1.11c-2.62.53-5.26,1-7.9,1.44a19,19,0,0,1-7.82-.52,7.54,7.54,0,0,1-1.19-.56Z" transform="translate(-129.07 -132.13)" style="fill:#298fc2"/><path d="M319.21,349.5A117.94,117.94,0,0,1,286,366.3a120.07,120.07,0,0,1-107-16.76,3.09,3.09,0,0,1,2.86.37c3.23,2.06,6.43,4.19,9.77,6a116.38,116.38,0,0,0,29.07,11.41,103.3,103.3,0,0,0,18.82,3c3.87.21,7.75.52,11.61.44A117.9,117.9,0,0,0,304,357.37,107.41,107.41,0,0,0,316.26,350,3.27,3.27,0,0,1,319.21,349.5Z" transform="translate(-129.07 -132.13)" style="fill:#298fc2"/><path d="M287.48,292.3V294c0,3.12,0,6.24,0,9.35a3.78,3.78,0,0,1-.3,1.66,1.43,1.43,0,0,1-1.12.67A1.53,1.53,0,0,1,285,305a3.28,3.28,0,0,1-.27-1.53c0-4.75,0-9.5,0-14.25a3.62,3.62,0,0,1,0-.57c.13-.71.25-1.46,1.12-1.65s1.22.37,1.64.91l9.08,11.67c.17.22.36.41.71.81.05-.6.1-.95.1-1.31,0-3.26,0-6.52,0-9.78a6.71,6.71,0,0,1,.15-1.42,1.15,1.15,0,0,1,1.29-.91,1.17,1.17,0,0,1,1.12,1.11,6.24,6.24,0,0,1,0,.86v15c0,.24,0,.48,0,.72a1.17,1.17,0,0,1-.81,1.07,1.11,1.11,0,0,1-1.31-.28,6,6,0,0,1-.65-.77l-8.83-11.33C288.16,293,287.93,292.8,287.48,292.3Z" transform="translate(-129.07 -132.13)" style="fill:#298fc2"/><path d="M300.56,262.45a15.51,15.51,0,0,1-7.06,2c-4.27.29-8.46-.45-12.68-.87a58.91,58.91,0,0,0-17.58.65,39.83,39.83,0,0,1-9.1,1c-1.63,0-3.25-.19-4.87-.32a1.33,1.33,0,0,1-.86-.53c1.69-.25,3.39-.43,5.05-.78,3.94-.81,7.85-1.73,11.78-2.56a41.14,41.14,0,0,1,11.09-1.24c3.24.2,6.47.55,9.7,1a93.16,93.16,0,0,0,11.56,1,29.27,29.27,0,0,1,2.93.27Z" transform="translate(-129.07 -132.13)" style="fill:#298fc2"/><path d="M344.12,300.45c0-.7.08-1.16.08-1.62v-9.77c0-.34,0-.68,0-1a1.21,1.21,0,0,1,1.13-1.12,1.31,1.31,0,0,1,1.38,1,4.14,4.14,0,0,1,.06,1v14.81a4.13,4.13,0,0,1,0,.86,1.27,1.27,0,0,1-2.18.72,12,12,0,0,1-1.29-1.54q-4.19-5.37-8.36-10.77c-.17-.21-.35-.41-.73-.85,0,.81-.08,1.27-.08,1.73v9.63a8.19,8.19,0,0,1,0,.86,1.29,1.29,0,1,1-2.57,0c0-.29,0-.58,0-.86q0-7.18,0-14.38c0-.84-.22-1.82.92-2.15s1.45.49,2,1.13l8.91,11.43C343.51,299.81,343.73,300,344.12,300.45Z" transform="translate(-129.07 -132.13)" style="fill:#298fc2"/><path d="M291.22,322.77V312c0-.38,0-.77,0-1.15a1.15,1.15,0,0,1,1.14-1.22,1.27,1.27,0,0,1,1.38,1,4.76,4.76,0,0,1,.06,1v15.11c0,.67-.16,1.28-.86,1.5a1.47,1.47,0,0,1-1.74-.62q-4.56-5.92-9.18-11.79c-.19-.25-.41-.48-.8-.93,0,.72-.08,1.17-.08,1.63,0,3.4,0,6.81,0,10.21,0,1.13-.37,1.55-1.23,1.57a1.18,1.18,0,0,1-1.32-1,6.78,6.78,0,0,1,0-1V311.73c0-.29,0-.58,0-.86a1.2,1.2,0,0,1,.85-1.21,1.3,1.3,0,0,1,1.44.41c.64.77,1.25,1.58,1.86,2.37l7.5,9.65c.22.28.49.53.74.8Z" transform="translate(-129.07 -132.13)" style="fill:#298fc2"/><path d="M306.77,292.61v2c0,3,0,5.94,0,8.92a4.68,4.68,0,0,1-.18,1.4,1.09,1.09,0,0,1-1.33.82,1.16,1.16,0,0,1-1.06-1.17c0-.19,0-.38,0-.58V288.73a5.77,5.77,0,0,1,0-.72,1.21,1.21,0,0,1,1.94-.83,4.59,4.59,0,0,1,.86.95q4.51,5.76,9,11.55l.51.63a10.6,10.6,0,0,0,.15-1.21c0-3.31,0-6.62,0-9.93a2.88,2.88,0,0,1,.28-1.51,1.59,1.59,0,0,1,1.24-.69c.39.06.75.62,1,1,.13.2,0,.56,0,.84v15c0,.24,0,.48,0,.72,0,.53-.17,1-.73,1.08a2.53,2.53,0,0,1-1.33-.21c-.31-.15-.5-.56-.74-.86l-8.65-11.1c-.23-.3-.49-.58-.73-.88Z" transform="translate(-129.07 -132.13)" style="fill:#298fc2"/><path d="M364.06,298.57h-2.45a4.33,4.33,0,0,1-1.14-.1,1.23,1.23,0,0,1-.9-1.44,1.12,1.12,0,0,1,1.18-1c1.53,0,3.07,0,4.6,0a1.19,1.19,0,0,1,1.26,1.29c.07,1.77.09,3.54,0,5.31a2.13,2.13,0,0,1-.89,1.36,8.91,8.91,0,0,1-9.5.85,9.12,9.12,0,0,1-5.33-8.22,9.43,9.43,0,0,1,8.95-9.7,9,9,0,0,1,6.28,2.06,1.23,1.23,0,0,1,.3,1.77,1.15,1.15,0,0,1-1.74.35,9.11,9.11,0,0,0-3.53-1.47,6.76,6.76,0,0,0-7.62,5.9,6.83,6.83,0,0,0,6.28,7.65,6.71,6.71,0,0,0,3.61-.77,1,1,0,0,0,.66-1C364.05,300.53,364.06,299.67,364.06,298.57Z" transform="translate(-129.07 -132.13)" style="fill:#298fc2"/><path d="M259.51,297.91l2.72,4.4c.28.45.59.88.83,1.35a1.28,1.28,0,0,1-.39,1.87,1.23,1.23,0,0,1-1.84-.51c-1-1.57-2-3.17-3-4.76l-1-1.59h-3.53c0,1.61,0,3.13,0,4.65,0,.34,0,.68,0,1,0,.86-.43,1.35-1.11,1.42a1.43,1.43,0,0,1-1.39-1.2,4.14,4.14,0,0,1-.08-1q0-7.19,0-14.38c0-1.87.43-2.31,2.27-2.29a34.56,34.56,0,0,1,4.44.15,5.39,5.39,0,0,1,4.8,4.49,5.48,5.48,0,0,1-2.13,5.84C259.93,297.51,259.76,297.68,259.51,297.91Zm-6.11-8.43V296a28.69,28.69,0,0,0,3.48,0,3.22,3.22,0,0,0-.1-6.42C255.7,289.39,254.6,289.48,253.4,289.48Z" transform="translate(-129.07 -132.13)" style="fill:#298fc2"/><path d="M263.8,317.67h4.31c.72,0,1.44,0,2.16,0,1,.06,1.51.54,1.46,1.37s-.51,1.18-1.48,1.2c-1.87,0-3.74,0-5.61,0-.23,0-.47,0-.9.07-.12,1.74,0,3.47-.06,5.3.55,0,1,.09,1.38.09,2.4,0,4.79,0,7.19,0a4.68,4.68,0,0,1,1.4.18,1.11,1.11,0,0,1,.83,1.33,1.17,1.17,0,0,1-1.17,1.06h-.58c-3.3,0-6.61,0-9.92,0-1.43,0-1.71-.26-1.71-1.65q0-7.7,0-15.38c0-1.31.37-1.66,1.74-1.67h9.92a4.34,4.34,0,0,1,.72,0,1.21,1.21,0,0,1,1,1.08,1.05,1.05,0,0,1-.71,1.26,4.38,4.38,0,0,1-1.39.21c-2.35,0-4.7,0-7.05,0H263.8Z" transform="translate(-129.07 -132.13)" style="fill:#298fc2"/><path d="M221.71,320.26v5.35c.41,0,.81.11,1.22.11,2.49,0,5,0,7.48,0a3.38,3.38,0,0,1,1.38.29,1.06,1.06,0,0,1,.59,1.31,1.14,1.14,0,0,1-1.1,1h-.57c-3.31,0-6.62,0-9.93,0-1.44,0-1.72-.26-1.72-1.66q0-7.69,0-15.39c0-1.26.38-1.64,1.63-1.64q5.1,0,10.22,0a1.46,1.46,0,0,1,1.55,1.17,1.39,1.39,0,0,1-1.51,1.39c-1.82,0-3.64,0-5.46,0H221.7c-.11,1.81,0,3.55,0,5.47h2.11c1.48,0,3,0,4.46,0,1,0,1.53.6,1.47,1.39s-.56,1.17-1.51,1.18c-1.63,0-3.26,0-4.89,0Z" transform="translate(-129.07 -132.13)" style="fill:#298fc2"/><path d="M169.8,312.27v5.4H172c1.48,0,3,0,4.46,0a1.3,1.3,0,1,1,0,2.59c-1.63,0-3.26,0-4.89,0h-1.76c-.07,1.84,0,3.57,0,5.47h2c2.35,0,4.7,0,7.05,0,1.14,0,1.7.47,1.72,1.3a1.07,1.07,0,0,1-1.06,1.26,5.77,5.77,0,0,1-.72,0c-3.26,0-6.52,0-9.78,0-1.47,0-1.77-.29-1.77-1.77q0-7.56,0-15.11c0-1.48.33-1.81,1.75-1.82h9.93a3.58,3.58,0,0,1,.57,0,1.11,1.11,0,0,1,1.08,1.13,1.22,1.22,0,0,1-1,1.37,5.47,5.47,0,0,1-1.15.07h-7C170.81,312.2,170.34,312.24,169.8,312.27Z" transform="translate(-129.07 -132.13)" style="fill:#298fc2"/><path d="M320.35,312.2v5.35a10.5,10.5,0,0,0,1.1.11c1.58,0,3.16,0,4.75,0a6.18,6.18,0,0,1,.86,0,1.43,1.43,0,0,1,1.29,1.31,1.29,1.29,0,0,1-1.33,1.24c-1.25,0-2.49,0-3.74,0h-2.87c-.22,1.81-.05,3.55-.11,5.37.49,0,.86.09,1.22.09,2.45,0,4.9,0,7.34,0a4.7,4.7,0,0,1,1.4.21,1.08,1.08,0,0,1,.74,1.38,1.14,1.14,0,0,1-1.09,1h-.57c-3.31,0-6.62,0-9.93,0-1.47,0-1.69-.21-1.69-1.65q0-7.7,0-15.39c0-1.34.29-1.65,1.58-1.65q5.1,0,10.22,0c.9,0,1.47.47,1.51,1.18a1.33,1.33,0,0,1-1.49,1.38c-2.49,0-5,0-7.48,0Z" transform="translate(-129.07 -132.13)" style="fill:#298fc2"/><path d="M245.13,320.54l2.9,4.66a13.73,13.73,0,0,1,.73,1.23,1.27,1.27,0,0,1-.42,1.76,1.45,1.45,0,0,1-1.78-.46c-.23-.31-.43-.64-.63-1-1-1.55-2-3.07-2.88-4.64a1.73,1.73,0,0,0-1.85-1c-.61.06-1.23,0-1.95,0a11,11,0,0,0-.13,1.17c0,1.48,0,3,0,4.46,0,1-.48,1.54-1.29,1.56a1.07,1.07,0,0,1-1.27-1.05,6.14,6.14,0,0,1,0-.86V311.58c0-1.79.18-2,2-2h3.59a5.7,5.7,0,0,1,5.63,3.88,5.79,5.79,0,0,1-2,6.54C245.55,320.16,245.38,320.33,245.13,320.54Zm-5.95-2h1.7c.58,0,1.15,0,1.72,0a3.08,3.08,0,0,0,2.85-3,3.13,3.13,0,0,0-2.66-3.23c-1.17-.11-2.36,0-3.61,0Z" transform="translate(-129.07 -132.13)" style="fill:#298fc2"/><path d="M230.3,197.51a10.24,10.24,0,0,1,1.14-.7,24.39,24.39,0,0,0,7.71-5.63c4.15-4.25,8.59-8.18,13-12.17a79,79,0,0,0,9.31-9.95c.26-.33.55-.63,1-1.17a8.36,8.36,0,0,1-.11,1,27.88,27.88,0,0,1-8.5,13.39q-6.75,5.78-13.59,11.46a20.61,20.61,0,0,1-5.31,3.37A6.87,6.87,0,0,1,230.3,197.51Z" transform="translate(-129.07 -132.13)" style="fill:#298fc2"/><path d="M266.05,243.34a11.76,11.76,0,0,1-4.33-.47,69.54,69.54,0,0,1-10.29-3.56c-2.79-1.12-5.55-2.38-8.58-2.69-1.85-.19-3.73-.18-5.59-.21-1.55,0-3.11,0-4.68-.18a18.92,18.92,0,0,1,9.15-2.15,25.81,25.81,0,0,1,9.72,1.87c-2.61-4-3.42-7.59.25-11.14a7.15,7.15,0,0,1,.17.95c0,.72,0,1.44,0,2.15-.15,3.19,1.24,5.73,3.28,8a22.37,22.37,0,0,0,6.24,4.54l4.79,2.55Z" transform="translate(-129.07 -132.13)" style="fill:#298fc2"/><path d="M291.69,195.54a2.5,2.5,0,0,1-.55,0c-3.75-1-7.48-2.06-11.23-3a23.28,23.28,0,0,1-9.75-5.28c-.9-.79-1.86-1.51-2.81-2.24a3.31,3.31,0,0,0-3.65-.34c-2.09,1-4.14,2-6.23,2.94a18.25,18.25,0,0,1-5.21,1.53,2.45,2.45,0,0,1,1.33-1.5q4.11-2.76,8.24-5.5c.32-.21.68-.37,1-.58a4.58,4.58,0,0,1,5-.19,15.2,15.2,0,0,1,3.44,2.3c3.1,3,6.82,4.9,10.64,6.71,3.11,1.48,6.18,3.05,9.27,4.59.2.1.38.25.57.37Z" transform="translate(-129.07 -132.13)" style="fill:#298fc2"/><path d="M186.71,297.21a2.93,2.93,0,0,0-1.65,3.12,35.68,35.68,0,0,1,0,3.87c0,1-.57,1.59-1.31,1.56a1.48,1.48,0,0,1-1.26-1.62q0-7.75,0-15.52a2.69,2.69,0,0,1,0-.57,1.39,1.39,0,0,1,1.3-1.14,1.29,1.29,0,0,1,1.23,1.18,8.74,8.74,0,0,1,0,1.15v5.56a9.62,9.62,0,0,0,1-.73l6.3-6.29c1-1,1.63-1.14,2.29-.43s.51,1.22-.47,2.21c-1.51,1.53-3,3-4.57,4.57l-1,1.1,2.63,3.59c1.08,1.47,2.19,2.91,3.23,4.4a2.14,2.14,0,0,1,.52,1.4,1.58,1.58,0,0,1-1,1.05,1.67,1.67,0,0,1-1.34-.55c-.82-.93-1.5-2-2.24-3C189.15,300.49,187.93,298.84,186.71,297.21Z" transform="translate(-129.07 -132.13)" style="fill:#298fc2"/><path d="M192.24,316.79c1.66-2.13,3.23-4.12,4.79-6.11a7.32,7.32,0,0,1,.52-.69,1.39,1.39,0,0,1,1.72-.16,1.23,1.23,0,0,1,.4,1.54,3.92,3.92,0,0,1-.63.95L193.88,319l4.76,6.12c.23.31.48.6.7.91.56.81.56,1.65,0,2.07a1.54,1.54,0,0,1-2.11-.48c-1.36-1.73-2.7-3.48-4.06-5.21-.29-.37-.6-.72-1-1.21l-3.15,4c-.68.86-1.36,1.73-2,2.6a1.28,1.28,0,0,1-1.54.47,1.34,1.34,0,0,1-.79-.88,2.35,2.35,0,0,1,.46-1.4c1-1.32,2-2.58,3-3.87l2.4-3.11-4.32-5.59-1-1.25c-.76-1-.8-1.69-.15-2.26s1.42-.36,2.25.71c1.42,1.8,2.83,3.62,4.25,5.42C191.75,316.25,192,316.45,192.24,316.79Z" transform="translate(-129.07 -132.13)" style="fill:#298fc2"/><path d="M173.73,299.48h-5.85c-.53,1.3-1.06,2.62-1.59,3.94-.2.49-.34,1-.57,1.47a1.3,1.3,0,1,1-2.41-1c.43-1.26.94-2.5,1.42-3.75l4.5-11.5c.31-.8.56-1.77,1.63-1.73s1.22.93,1.51,1.7q2.69,6.89,5.36,13.78a12.59,12.59,0,0,1,.6,1.76,1.19,1.19,0,0,1-.82,1.48A1.09,1.09,0,0,1,176,305c-.6-1.3-1.09-2.65-1.63-4C174.15,300.53,174,300,173.73,299.48Zm-1-2.7-1.9-4.92c-.7,1.81-1.28,3.3-1.9,4.92Z" transform="translate(-129.07 -132.13)" style="fill:#298fc2"/><path d="M217.71,299.5h-5.93c-.56,1.45-1.13,2.92-1.72,4.37a6.11,6.11,0,0,1-.7,1.4,1,1,0,0,1-1.4.36,1.19,1.19,0,0,1-.79-1.24,4,4,0,0,1,.26-1l5.82-15a5.08,5.08,0,0,1,.34-.79,1.27,1.27,0,0,1,2.37.1c.37.77.63,1.6.95,2.4q2.52,6.48,5,13a4.07,4.07,0,0,1,.37,1.08,1.29,1.29,0,0,1-.76,1.4,1.14,1.14,0,0,1-1.51-.42,6.91,6.91,0,0,1-.69-1.42C218.81,302.4,218.29,301,217.71,299.5Zm-2.8-7.23-.32,0c-.57,1.48-1.13,3-1.74,4.54h3.77C216,295.18,215.46,293.72,214.91,292.27Z" transform="translate(-129.07 -132.13)" style="fill:#298fc2"/><path d="M280.67,294.11c0,1.67-.07,3.35,0,5a6.68,6.68,0,0,1-13.33.5c0-.38,0-.76,0-1.15v-9.19c0-.29,0-.58,0-.87.07-1,.58-1.55,1.35-1.53a1.49,1.49,0,0,1,1.23,1.64c0,3.4,0,6.81,0,10.21a4.18,4.18,0,0,0,2.74,4.14,4,4,0,0,0,5.4-3.61c.05-3.31,0-6.61,0-9.92a7.21,7.21,0,0,1,0-1.14,1.53,1.53,0,0,1,1.46-1.32,1.37,1.37,0,0,1,1.09,1.47C280.68,290.27,280.66,292.19,280.67,294.11Z" transform="translate(-129.07 -132.13)" style="fill:#298fc2"/><path d="M206.58,322.18c0,1.35,0,2.49,0,3.63a10.38,10.38,0,0,1-.19,1.56,1.08,1.08,0,0,1-1.23.94,1.11,1.11,0,0,1-1.2-1,7.72,7.72,0,0,1-.15-1.27q0-7,0-14.07a5.42,5.42,0,0,1,.08-1.14,1.28,1.28,0,0,1,1.48-1.21,38.61,38.61,0,0,1,3.88,0,6.22,6.22,0,0,1,4.29,10.24c-1.44,1.75-3.38,2.22-5.49,2.3C207.61,322.19,207.19,322.18,206.58,322.18Zm.1-10v7.17c.81,0,1.52,0,2.23,0a3.5,3.5,0,0,0,3.51-3.3,3.7,3.7,0,0,0-3-3.85A21.06,21.06,0,0,0,206.68,312.22Z" transform="translate(-129.07 -132.13)" style="fill:#298fc2"/><path d="M134.12,299.44v3.69a13.61,13.61,0,0,1,0,1.43,1.31,1.31,0,0,1-1.22,1.19,1.44,1.44,0,0,1-1.34-1.25,5.74,5.74,0,0,1,0-.72V289c0-1.75.37-2.14,2.08-2.12a24.09,24.09,0,0,1,4,.21,6.16,6.16,0,0,1,5.05,6.92,6.33,6.33,0,0,1-6.24,5.43Zm.09-2.61a17.52,17.52,0,0,0,2.62,0,3.59,3.59,0,0,0,3-2.36,3.36,3.36,0,0,0-.66-3.6c-1.38-1.57-3.13-1.52-5-1.27Z" transform="translate(-129.07 -132.13)" style="fill:#298fc2"/><path d="M307.26,328.32c-4.74.31-8.89-3.89-9.34-8.24a9.48,9.48,0,0,1,7.83-10.4,9.09,9.09,0,0,1,6.72,1.46,5.25,5.25,0,0,1,.78.63,1.17,1.17,0,0,1,.23,1.56,1.26,1.26,0,0,1-1.64.48,8.53,8.53,0,0,1-.85-.53,6.81,6.81,0,0,0-10.39,6.89,6.4,6.4,0,0,0,4.83,5.34,6.65,6.65,0,0,0,5.53-.79c.32-.2.65-.4,1-.57a1.11,1.11,0,0,1,1.38.44,1.08,1.08,0,0,1,.05,1.45,3.65,3.65,0,0,1-.74.67A8.36,8.36,0,0,1,307.26,328.32Z" transform="translate(-129.07 -132.13)" style="fill:#298fc2"/><path d="M184.68,260.16c1.47-.05,2.94-.14,4.4-.14a42.63,42.63,0,0,0,8.79-1.25c3.74-.79,7.47-1.67,11.24-2.32A28.37,28.37,0,0,1,223,257.68c.7.23,1.36.59,2,.89l-.1.33c-1.14-.14-2.28-.35-3.43-.39-2.29-.06-4.6-.17-6.88,0-5.76.42-11.22,2.37-16.85,3.42-3.8.71-7.61,1-11.33-.44-.65-.24-1.25-.6-1.87-.9Z" transform="translate(-129.07 -132.13)" style="fill:#298fc2"/><path d="M237.39,299.78a5.88,5.88,0,0,1-3.87,5.63,6,6,0,0,1-6.41-1.67,4.73,4.73,0,0,1-.43-.57,1.42,1.42,0,0,1,.2-1.83,1.22,1.22,0,0,1,1.88.26,3.88,3.88,0,0,0,2.08,1.43,3.08,3.08,0,0,0,3.55-1.73,2.8,2.8,0,0,0-.84-3.69,7.75,7.75,0,0,0-1.53-.75c-.66-.28-1.36-.47-2-.78a4.67,4.67,0,0,1-2.68-4.81,4.9,4.9,0,0,1,9-2.1,1.31,1.31,0,1,1-2.19,1.4,2.13,2.13,0,0,0-2.12-.92,2.33,2.33,0,0,0-2.05,1.73,1.91,1.91,0,0,0,1.2,2.32c.73.34,1.53.55,2.27.87a5.93,5.93,0,0,1,3.88,4.6C237.34,299.41,237.37,299.65,237.39,299.78Z" transform="translate(-129.07 -132.13)" style="fill:#298fc2"/><path d="M149.28,303.18h7.23a13.84,13.84,0,0,1,1.44,0,1.22,1.22,0,0,1,1.19,1.19,1.29,1.29,0,0,1-1.07,1.34,3.35,3.35,0,0,1-.71,0h-8.77c-1.51,0-1.89-.38-1.89-1.86q0-7.62,0-15.24a3.62,3.62,0,0,1,0-.57,1.31,1.31,0,0,1,1.22-1.19,1.37,1.37,0,0,1,1.32,1.12,7.3,7.3,0,0,1,0,1.15v14Z" transform="translate(-129.07 -132.13)" style="fill:#298fc2"/><path d="M238.58,202.32c2.09-.78,4.21-1.51,6.27-2.36,4.29-1.76,8.54-3.61,12.82-5.39,1.45-.61,2.93-1.16,4.41-1.7a11.44,11.44,0,0,1,5.1-.44,13.35,13.35,0,0,1,2.05.51v.31a6.69,6.69,0,0,1-1.26.06,10.57,10.57,0,0,0-6.31,1.51c-2.11,1.13-4.16,2.36-6.27,3.48a38,38,0,0,1-15.57,4.5,9.89,9.89,0,0,1-1.21-.11Z" transform="translate(-129.07 -132.13)" style="fill:#298fc2"/><path d="M326.92,296.36c0,2.34,0,4.69,0,7a7.34,7.34,0,0,1-.17,1.4,1.12,1.12,0,0,1-1.26.93,1.1,1.1,0,0,1-1.13-.92,9,9,0,0,1-.2-1.55q0-7,0-13.91a6.82,6.82,0,0,1,.22-1.55,1.15,1.15,0,0,1,1.17-.88,1.17,1.17,0,0,1,1.18.88,6.64,6.64,0,0,1,.19,1.4C326.93,291.58,326.92,294,326.92,296.36Z" transform="translate(-129.07 -132.13)" style="fill:#298fc2"/><path d="M142.93,307.93c1-.43,1.46.1,1.86.85a112.66,112.66,0,0,0,9.91,15.3A110.47,110.47,0,0,0,164,334.81c1,1,1,1,.82,2.38C160.64,334.93,146.57,316.15,142.93,307.93Z" transform="translate(-129.07 -132.13)" style="fill:#298fc2"/><path d="M333.43,337.44a2.26,2.26,0,0,1,.64-2.55A113.83,113.83,0,0,0,353.26,309c.41-.76.76-1.64,2.06-1.07A117.24,117.24,0,0,1,333.43,337.44Z" transform="translate(-129.07 -132.13)" style="fill:#298fc2"/><path d="M202.36,296.26c0,2.45,0,4.89,0,7.34,0,.33,0,.67,0,1a1.16,1.16,0,0,1-1.1,1.13A1.08,1.08,0,0,1,200,305a3.84,3.84,0,0,1-.22-1.26q0-7.39,0-14.8a3.8,3.8,0,0,1,.17-1.12,1.22,1.22,0,0,1,2.4.4c0,1.49,0,3,0,4.46Z" transform="translate(-129.07 -132.13)" style="fill:#298fc2"/><path d="M253.8,318.92v-7c0-.34,0-.68,0-1a1.29,1.29,0,0,1,1.27-1.27,1.21,1.21,0,0,1,1.29,1.24,6.14,6.14,0,0,1,0,.86q0,7.25,0,14.49a6.68,6.68,0,0,1,0,1,1.1,1.1,0,0,1-1.24,1.1,1.21,1.21,0,0,1-1.29-1.07,5.57,5.57,0,0,1,0-1Z" transform="translate(-129.07 -132.13)" style="fill:#298fc2"/><path d="M235.52,242.06a9.37,9.37,0,0,1,1.78-.36c3.39,0,6.82-.23,10.15.54a60.94,60.94,0,0,1,6.14,2,54.79,54.79,0,0,1,6,2.46,4.27,4.27,0,0,1-.85.17,32.25,32.25,0,0,1-9.6-1.5c-2.66-.78-5.34-1.5-8-2.11-1.58-.35-3.21-.45-4.82-.67-.27,0-.53-.12-.79-.18Z" transform="translate(-129.07 -132.13)" style="fill:#298fc2"/><path d="M288.1,343.51a1.56,1.56,0,0,0,.72-.93c.07-.48-.43-.54-.83-.54h-3.15c-.5,1.79-1,3.44-1.44,5.18h-1.85c.63-2.38,1.25-4.71,1.88-7.1h5c2.14,0,3.09,1.73,1.94,3.56a13.39,13.39,0,0,1-1.45,1.65l.92,1.71c-1.73.54-2,.49-2.82-.88a1.17,1.17,0,0,0-1.15-.67,10.94,10.94,0,0,1-1.18-.05c.13-.62.25-1.15.4-1.87" transform="translate(-129.07 -132.13)" style="fill:#298fc2"/><path d="M218.75,340.12c1.89,0,3.62-.05,5.34,0A2,2,0,0,1,226,343a15.85,15.85,0,0,1-1.68,2.42l.92,1.58c-1.7.55-2,.48-2.83-.84a1.22,1.22,0,0,0-1.25-.72,6.35,6.35,0,0,1-1-.06,6.74,6.74,0,0,1,.14-.91,9.32,9.32,0,0,1,.35-.94c.73,0,1.49,0,2.25,0a1.73,1.73,0,0,0,1-.21,1.16,1.16,0,0,0,.35-.86c0-.15-.4-.4-.64-.41-1-.05-2.1,0-3.31,0l-1.47,5.18h-1.84C217.5,344.84,218.1,342.56,218.75,340.12Z" transform="translate(-129.07 -132.13)" style="fill:#298fc2"/><path d="M298.77,340.12c2,0,3,.64,3.26,2.26a3.54,3.54,0,0,1-.6,2.56,5.53,5.53,0,0,1-6.31,2.18,2.54,2.54,0,0,1-1.7-3.2A5,5,0,0,1,298.77,340.12Zm-1.51,5.37a2.74,2.74,0,0,0,2.74-1.66,1.23,1.23,0,0,0-.92-1.74,4.4,4.4,0,0,0-2,.05,3.21,3.21,0,0,0-1.52,1.18C294.8,344.47,295.63,345.5,297.26,345.49Z" transform="translate(-129.07 -132.13)" style="fill:#298fc2"/><path d="M212,340.12h.43c1.82-.17,3.62,1.37,2.63,4.06a4.63,4.63,0,0,1-4,3.09,9,9,0,0,1-1.87,0,2.65,2.65,0,0,1-2.43-3.56A5,5,0,0,1,212,340.12Zm-1.58,5.38c1.37-.08,2.35-.46,2.86-1.6a1.23,1.23,0,0,0-.94-1.82,6.44,6.44,0,0,0-1.86,0,2.23,2.23,0,0,0-1.76,1.52,1.17,1.17,0,0,0,.79,1.68A8,8,0,0,0,210.44,345.5Z" transform="translate(-129.07 -132.13)" style="fill:#298fc2"/><path d="M189.69,345.49c.09-.5.16-.87.22-1.23a.8.8,0,0,1,.93-.69q.79,0,1.59,0c.28,0,.64,0,.83-.14a1.7,1.7,0,0,0,.52-.92c0-.1-.47-.43-.74-.44-1-.06-2.1,0-3.24,0l-1.45,5.2h-1.86c.64-2.39,1.26-4.68,1.9-7.1,1.91,0,3.77-.09,5.62,0,1.44.1,2.14,1.45,1.6,2.91a3.41,3.41,0,0,1-3,2.39C191.69,345.56,190.73,345.49,189.69,345.49Z" transform="translate(-129.07 -132.13)" style="fill:#298fc2"/><path d="M305.43,340.17h1.82c-.22.89-.41,1.69-.61,2.5-.15.61-.3,1.21-.44,1.81a.73.73,0,0,0,.74,1,14.71,14.71,0,0,0,2.3,0,1.41,1.41,0,0,0,1.25-1.2c.34-1.34.71-2.67,1.08-4h1.91a47.64,47.64,0,0,1-1.49,5,3.34,3.34,0,0,1-3,2.07,24.86,24.86,0,0,1-2.73,0,1.94,1.94,0,0,1-2-2.52C304.52,343.25,305,341.75,305.43,340.17Z" transform="translate(-129.07 -132.13)" style="fill:#298fc2"/><path d="M175.58,347.15l3.87-3.44-2-3.49h2.28l1.34,2.08a10.57,10.57,0,0,0,1.47-1.26c.81-1,1.82-1.05,3.25-.78l-3.86,3.48,2,3.45h-2.29l-1.32-2c-.55.44-1.07.83-1.55,1.25C177.6,347.44,177.6,347.44,175.58,347.15Z" transform="translate(-129.07 -132.13)" style="fill:#298fc2"/><path d="M173.87,345.48l-.47,1.76h-6.26c.64-2.39,1.26-4.71,1.88-7.06h6.26L174.8,342h-4.35l-.93,3.46Z" transform="translate(-129.07 -132.13)" style="fill:#298fc2"/><path d="M231.14,342l-.91,3.44h4.34l-.46,1.75h-6.24c.63-2.38,1.25-4.7,1.87-7.05h6.19c-.07.4-.14.72-.18,1-.08.68-.49.84-1.11.83C233.5,342,232.35,342,231.14,342Z" transform="translate(-129.07 -132.13)" style="fill:#298fc2"/><path d="M265.81,340.18H272l-.4,1.8h-4.38c-.32,1.19-.6,2.28-.92,3.53h4.33l-.46,1.72H264Z" transform="translate(-129.07 -132.13)" style="fill:#298fc2"/><path d="M329.16,347.24h-6.27c.65-2.4,1.26-4.7,1.89-7H331l-.45,1.81H326.2l-.95,3.48h4.38Z" transform="translate(-129.07 -132.13)" style="fill:#298fc2"/><path d="M316,340.18h6.15c-.14.62-.25,1.15-.38,1.76l-2.2.17-1.43,5.09h-1.83l1.29-5.09-1.88-.12C315.47,341.38,315.8,340.85,316,340.18Z" transform="translate(-129.07 -132.13)" style="fill:#298fc2"/><path d="M249,342.13l-2.07-.18.42-1.75h6.23l-.41,1.77-2.19.12-1.45,5.13h-1.82C248.13,345.49,248.54,343.85,249,342.13Z" transform="translate(-129.07 -132.13)" style="fill:#298fc2"/><path d="M198.94,340.19h1.84c-.44,1.75-.85,3.39-1.32,5.24h4.3l-.43,1.78h-6.27C197.69,344.85,198.3,342.56,198.94,340.19Z" transform="translate(-129.07 -132.13)" style="fill:#298fc2"/><path d="M194.53,237.74c5.46-.74,10.92-1.44,16.41-.32A37.86,37.86,0,0,1,194.53,237.74Z" transform="translate(-129.07 -132.13)" style="fill:#298fc2"/><path d="M257.6,344.55l.53-1.78,2.56-.12.75-2.43h1.84c-.64,2.38-1.25,4.7-1.88,7h-1.81l.54-2.55Z" transform="translate(-129.07 -132.13)" style="fill:#298fc2"/><path d="M258,340.19l-1.87,7h-1.87c.63-2.39,1.25-4.71,1.87-7Z" transform="translate(-129.07 -132.13)" style="fill:#298fc2"/><path d="M271.37,342.8c-.17.67-.29,1.17-.44,1.74h-3.62l.45-1.74Z" transform="translate(-129.07 -132.13)" style="fill:#298fc2"/><path d="M174.08,344.58h-3.52l.42-1.78h3.61Z" transform="translate(-129.07 -132.13)" style="fill:#298fc2"/><path d="M231.29,344.55c.14-.65.27-1.19.4-1.77h3.58l-.44,1.77Z" transform="translate(-129.07 -132.13)" style="fill:#298fc2"/><path d="M326.75,342.71h2.88a4.76,4.76,0,0,1,.64.11c-.14.59-.26,1.13-.4,1.72H326.3Z" transform="translate(-129.07 -132.13)" style="fill:#298fc2"/><path d="M263,220.72a23.3,23.3,0,0,1-.38,6A5.16,5.16,0,0,1,263,220.72Z" transform="translate(-129.07 -132.13)" style="fill:#298fc2"/></svg>