<svg xmlns="http://www.w3.org/2000/svg" viewBox="0 0 432.72 461.74"><title>logo</title><path d="M33,225.53a1.39,1.39,0,0,0,.1-.33c.11-1,.26-2,.3-3a100.54,100.54,0,0,1,9.21-37.83,109.58,109.58,0,0,1,12.75-20.84A129.43,129.43,0,0,1,68.6,148.86a143.43,143.43,0,0,1,16.45-13.7,88.6,88.6,0,0,1,29.71-13.5,98.39,98.39,0,0,1,12.5-2.27c2.76-.33,5.54-.56,8.33-.63,2.31-.05,4.63-.11,6.94-.07,2.08,0,4.15.16,6.22.31,1.88.14,3.75.33,5.63.53,3.12.32,6.22.82,9.31,1.38a160,160,0,0,1,19.16,4.75,186.31,186.31,0,0,1,25.46,10.06,163.19,163.19,0,0,1,17.08,9.45,76.55,76.55,0,0,1,9,6.63,32.35,32.35,0,0,0,15.68,7.36,33.29,33.29,0,0,0,6,.55,28.8,28.8,0,0,0,12.47-2.52,13.57,13.57,0,0,0,5.11-4.06,34,34,0,0,1,4.39-4.59,131.91,131.91,0,0,1,19.25-14.49,140.48,140.48,0,0,1,28.2-13.69,112.13,112.13,0,0,1,18.76-4.85,103.76,103.76,0,0,1,11-1.23,82.73,82.73,0,0,1,12,.15,80.88,80.88,0,0,1,27.56,7.46,91.25,91.25,0,0,1,23.76,16.34,118.16,118.16,0,0,1,23.29,31,156,156,0,0,1,13,33.85c.11.42.2.84.3,1.26,0,.11,0,.22.06.41-.37-.16-.45-.47-.6-.71-2.52-4-5-8.09-7.56-12.07a187.72,187.72,0,0,0-15.47-20.9,111.59,111.59,0,0,0-14.84-14.4,82.7,82.7,0,0,0-32.6-16,96.07,96.07,0,0,0-12.39-2.14,118.68,118.68,0,0,0-12.92-.66c-2.59,0-5.18.08-7.76.26a91.15,91.15,0,0,0-29,6.5,80.55,80.55,0,0,0-22.31,14c-3,2.58-5.77,5.32-8.51,8.13-2.46,2.53-4.95,5-7.52,7.46a37.68,37.68,0,0,1-10.42,6.75A47.43,47.43,0,0,1,260,185a42.46,42.46,0,0,1-5.51.43,32.46,32.46,0,0,1-12.66-2.25,24.32,24.32,0,0,1-7.86-5.08,70.27,70.27,0,0,0-8.85-7.2,148,148,0,0,0-16.92-10.19,185.23,185.23,0,0,0-25-10.85,153.25,153.25,0,0,0-23-6.17q-5.73-1-11.54-1.53a101.64,101.64,0,0,0-10.47-.35,48,48,0,0,0-8.52,1,87.49,87.49,0,0,0-29.31,12.08,91.14,91.14,0,0,0-17,13.87,87.59,87.59,0,0,0-15.09,21.22,94.31,94.31,0,0,0-8.6,25.8,115.16,115.16,0,0,0-1.7,14.95q-.26,5.24-.07,10.46a129.34,129.34,0,0,0,2.59,21.94A137.55,137.55,0,0,0,69,289.55a209.15,209.15,0,0,0,13.4,25.5c5.52,9.05,11.53,17.77,17.83,26.3,8.37,11.34,17.2,22.32,26.25,33.11,10.29,12.27,20.87,24.28,31.57,36.19.25.27.48.57.79.94a1.9,1.9,0,0,1-1.21-.4c-1.62-1-3.25-1.89-4.84-2.9A258.6,258.6,0,0,1,131.41,393q-11.16-8.77-21.48-18.51A285.54,285.54,0,0,1,82.39,344.7C76.6,337.41,71.28,329.79,66.24,322c-4.57-7.09-8.84-14.36-12.73-21.85a208.26,208.26,0,0,1-11.93-27.37,154.29,154.29,0,0,1-6.4-24.2,115.16,115.16,0,0,1-1.52-12.13c-.1-1.41-.15-2.82-.27-4.23-.09-1-.26-2.08-.39-3.12Z" transform="translate(-33 -15)" style="fill:#9fb4b4"/><path d="M180.21,15a5.19,5.19,0,0,0,.78.18,77.44,77.44,0,0,1,28.67,7.23A66.69,66.69,0,0,1,227,34.08a61.66,61.66,0,0,1,15.66,23.77,78.22,78.22,0,0,1,4.07,15.8,102.12,102.12,0,0,1,1,10.77c.11,2.59,0,5.17-.09,7.76,0,1.12-.3,1.45-1.39,1.7A13.57,13.57,0,0,1,242,94a72.18,72.18,0,0,1-11.1-2,127.73,127.73,0,0,1-23.05-8,65.71,65.71,0,0,1-7.65-4.15,29.88,29.88,0,0,1-6.64-5.59c-2.22-2.59-4.54-5.09-6.73-7.71a56.31,56.31,0,0,1-8.35-13.32,59,59,0,0,1-4.14-13.94,89.74,89.74,0,0,1-1.14-17.93c.05-1.77.14-3.53.23-5.29a6.2,6.2,0,0,1,.22-1Z" transform="translate(-33 -15)" style="fill:#9fb4b4"/><path d="M295.68,411.64l.37.07c.24-.4.49-.8.72-1.21a31.45,31.45,0,0,1,4-5.52,16.1,16.1,0,0,1,4-3.22,9.88,9.88,0,0,1,4.35-1.3,7.52,7.52,0,0,1,6,2.43,10.35,10.35,0,0,1,2.36,4.29,17.21,17.21,0,0,1,.14,8.84,31.13,31.13,0,0,1-1.79,5.35c-.09.21-.14.44-.21.66,0,0,0,.06.1.14a3.29,3.29,0,0,0,.39-.17,36,36,0,0,0,10.18-9.15,47.54,47.54,0,0,0,4.2-7.07,2.63,2.63,0,0,0,.26-1.25c0-1.14-.05-2.28-.05-3.42,0-7.77,0-15.54,0-23.31q0-6.65-.05-13.3c0-2.9-.06-5.8-.09-8.71,0-.27,0-.55,0-.82a.74.74,0,0,1,.36-.69l.29-.21,8.35-5.71a1.92,1.92,0,0,1,.38-.19c.28.15.18.37.18.54,0,2.16,0,4.32-.05,6.48l-.24,15.17-.18,11.42c0,1.72,0,3.45-.06,5.17-.09,3.06-.22,6.12-.32,9.17,0,.16,0,.31,0,.51a1.86,1.86,0,0,0,.43-1,55,55,0,0,1,2.59-8.3,29,29,0,0,1,3.45-6.27,11.16,11.16,0,0,1,4.45-3.75,10,10,0,0,1,1.78-.59,4.81,4.81,0,0,1,4.65,1.33,9.92,9.92,0,0,1,2.84,5.44,21.28,21.28,0,0,1,.28,5.4c-.16,2.77-.45,5.54-.66,8.32-.11,1.6-.2,3.21-.24,4.81a11.57,11.57,0,0,0,.41,3.26,5.64,5.64,0,0,0,.84,1.93,1.48,1.48,0,0,0,2.32.45,3.73,3.73,0,0,0,1-1,16.5,16.5,0,0,0,1.25-2.25,37.38,37.38,0,0,0,2.1-6.85c.91-3.9,1.59-7.84,2.15-11.8.51-3.65,1-7.31,1.45-11,.15-1.2.09-2.42.16-3.64a33.51,33.51,0,0,1,2.88-12.53,23,23,0,0,1,5.88-7.71,15.38,15.38,0,0,1,3.33-2.2,10.11,10.11,0,0,1,8.32-.36,27.84,27.84,0,0,1,2.73,1.37c.73.38,1.42.83,2.16,1.19a9.92,9.92,0,0,0,1.65.61,3.6,3.6,0,0,0,3-.51,7.65,7.65,0,0,0,3.24-4.34,2.56,2.56,0,0,0-.19-2c-1-2-2-4-3-6L398,333.31c-.1-.21-.18-.43-.26-.6.55-1.28,5.44-9.89,6-10.57.31.1.33.4.43.64q1.79,4.47,3.56,9a6.25,6.25,0,0,0,.63,1.27,4,4,0,0,0,0-.6,64.2,64.2,0,0,1-.86-8.07c0-.74-.07-1.49-.07-2.23a8.25,8.25,0,0,0-.26-2.21,6,6,0,0,1,.22-3.59,17.36,17.36,0,0,1,1.1-2.59c.84-1.64,1.75-3.25,2.63-4.87.08-.13.18-.25.25-.37.38-.05.39.26.47.44a42.83,42.83,0,0,0,2.54,5.18c.62,1,1.34,2,2.06,3a5.75,5.75,0,0,0,1.87,1.59,6.36,6.36,0,0,0,.95.45,2.38,2.38,0,0,0,3.14-1.08,8.06,8.06,0,0,0,1.08-3,18,18,0,0,0,.18-4.81,51.13,51.13,0,0,0-1.85-9.34,5.62,5.62,0,0,0-.74-1.59c-1-1.5-2-3-3-4.57,1.39-3.27,2.79-6.54,4.25-9.89a2.77,2.77,0,0,1,.82,1q3.74,5.85,7.44,11.72l6.12,9.64a21,21,0,0,0,2.74,3.67,22.66,22.66,0,0,0,2,1.68,3.08,3.08,0,0,0,.82.44,1.28,1.28,0,0,0,1.65-.52,3.07,3.07,0,0,0,.54-1.16,12,12,0,0,0,.19-2.46,48.41,48.41,0,0,0-1-7c-1.23-6.08-2.88-12-4.7-18-1.24-4-2.59-8-3.92-12a16,16,0,0,0-1.1-2.47,33.3,33.3,0,0,1-3.53-11.16,17.57,17.57,0,0,1,.4-7.46,11.71,11.71,0,0,1,.87-2.17,6.65,6.65,0,0,1,3.85-3.28c.36-.12.71-.26,1.19-.44-.84-.81-1.71-1.41-2.5-2.17q.79-5.41,1.57-10.78c.43-.06.57.22.75.41,1.54,1.56,3.06,3.15,4.61,4.71,2.85,2.86,5.7,5.73,8.58,8.57a66.07,66.07,0,0,0,6.68,5.94,28.43,28.43,0,0,0,2.83,1.89,7.57,7.57,0,0,0,2,.78,1.54,1.54,0,0,0,2.07-1.34,22.24,22.24,0,0,0,.3-3.16,59.21,59.21,0,0,0-.63-9,121.05,121.05,0,0,0-2.44-12.95,71.08,71.08,0,0,0-3-9.76,19.9,19.9,0,0,0-2.05-4,2,2,0,0,1-.16-.35,8.31,8.31,0,0,1,2-.55,6.76,6.76,0,0,1,1.16,1.77,37.53,37.53,0,0,1,2.69,7,106.87,106.87,0,0,1,3.13,14.47c.41,2.79.78,5.59,1.08,8.4a61.08,61.08,0,0,1,.28,9.75,17.79,17.79,0,0,1-.47,3.26,5.77,5.77,0,0,1-3.88,4.37,6,6,0,0,1-2.67.26l-1.28-.14a6.09,6.09,0,0,0,.26.69c.69,1.4,1.46,2.78,2.08,4.21a18,18,0,0,1,1.58,6.25,12.37,12.37,0,0,1-.56,4.64,7.67,7.67,0,0,1-8.31,5.35A19.54,19.54,0,0,1,441.61,279c-.91-.74-1.73-1.58-2.59-2.38l-.49-.48a1.35,1.35,0,0,0,.16.92c1.42,3.62,2.67,7.29,3.8,11a115.53,115.53,0,0,1,3.33,13.71,46.63,46.63,0,0,1,.8,9.72,14.65,14.65,0,0,1-.67,4.16,9.12,9.12,0,0,1-1.31,2.49,5.25,5.25,0,0,1-5.8,2.14,10.14,10.14,0,0,1-4.38-2.19,20.17,20.17,0,0,1-3.35-3.62c-1.16-1.63-2.27-3.3-3.38-5-1-1.44-1.89-2.89-2.84-4.33-.15-.23-.32-.44-.63-.86.05.41,0,.58.08.73a28.56,28.56,0,0,1,1,9,21,21,0,0,1-.94,5.67,12.93,12.93,0,0,1-3.85,6,6.16,6.16,0,0,1-6.8,1.06,11.93,11.93,0,0,1-3.28-2.06l-.85-.76c-.3.11-.25.33-.24.51.1,1.48.16,3,.33,4.45a69,69,0,0,0,6.56,21.63c1,2.12,2.11,4.2,3.23,6.41-.44,1-1.09,2-1.65,3.12s-1.11,2.08-1.68,3.11-1.16,2.13-1.73,3.16c-.45,0-.47-.32-.58-.54-1.1-2.21-2.18-4.43-3.26-6.65q-2.42-4.92-4.81-9.83c-.14-.27-.32-.52-.49-.82a9.94,9.94,0,0,1-8.37,5.25,6.49,6.49,0,0,0,.27.64,23,23,0,0,1,3,9.94,38.19,38.19,0,0,1,0,6.93,26.13,26.13,0,0,1-6.55,15.67,18.61,18.61,0,0,1-4.7,3.87A9.56,9.56,0,0,1,383.3,392a9.08,9.08,0,0,1-3.78-1.2,17.12,17.12,0,0,1-7.34-8.18c-.14-.32-.29-.64-.44-1a.28.28,0,0,0-.11,0c-.21.05-.15.24-.17.37-.63,4.9-1.33,9.8-2.35,14.63a52.76,52.76,0,0,1-2.12,7.59,20.3,20.3,0,0,1-2.16,4.29,11.85,11.85,0,0,1-3.35,3.27A6.41,6.41,0,0,1,353,410.7a12.24,12.24,0,0,1-2.92-5.82,20,20,0,0,1-.16-6c.21-2.22.42-4.45.66-6.67a40.62,40.62,0,0,0,.28-5.17,9.18,9.18,0,0,0-.31-2.44,4.26,4.26,0,0,0-.81-1.55,1.54,1.54,0,0,0-2.28-.36,5.91,5.91,0,0,0-1.45,1.37,15.35,15.35,0,0,0-2,3.7,44.07,44.07,0,0,0-2.1,6.85,81.82,81.82,0,0,0-1.61,8.79,63.52,63.52,0,0,0-.4,11.86c.17,2.47.4,4.92.77,7.37,0,.15,0,.31,0,.53-1,.83-2.08,1.47-3.13,2.22s-2.07,1.42-3.11,2.12-2.13,1.45-3.17,2.15c-.4-.21-.26-.52-.26-.77,0-4,0-7.92-.06-11.89,0-2-.06-4-.1-6a2.21,2.21,0,0,0-.06-.34c-.36-.09-.37.24-.45.41a24.89,24.89,0,0,1-4.89,6.59,34.58,34.58,0,0,1-6.16,4.89c-1.57,1-3.19,1.86-4.8,2.75a3.36,3.36,0,0,0-1.2,1.08,43.44,43.44,0,0,1-4.52,5.87,28.38,28.38,0,0,1-6.68,5.53,18.27,18.27,0,0,1-5.45,2.14,4.25,4.25,0,0,1-2.21-.06,2.61,2.61,0,0,1-1.54-1.2,3.78,3.78,0,0,1-.17-3.71,7.07,7.07,0,0,1,2.07-2.38,25.55,25.55,0,0,1,4.71-2.89c1.86-.91,3.75-1.78,5.63-2.67l1-.46a46.42,46.42,0,0,0,1.55-5.29,38,38,0,0,0,.91-5.81,17.72,17.72,0,0,0-.63-6.52,8.41,8.41,0,0,0-.91-2,2.64,2.64,0,0,0-3.57-1.08,6.69,6.69,0,0,0-2.33,1.75,25.09,25.09,0,0,0-3.53,5.26,71.31,71.31,0,0,0-4.24,10c-1.45,4.11-2.57,8.32-3.76,12.51Q284.21,454,278.9,472.75c-.08.3-.18.6-.29,1-1.55.59-3.17,1-4.78,1.53s-3.16,1.05-4.91,1.49c.1-.45.16-.79.26-1.11q2.79-9.67,5.6-19.32l9.6-33.1a1.36,1.36,0,0,0,.08-1.08c-.29.26-.55.47-.8.71-3.08,3-6.2,5.89-9.48,8.64a79,79,0,0,1-9.95,7.31,31.17,31.17,0,0,1-6.24,3,14.15,14.15,0,0,1-3.68.74,9.24,9.24,0,0,1-4.68-.93,4.84,4.84,0,0,1-2.79-4.08,14.49,14.49,0,0,1,.12-3.29,5.5,5.5,0,0,1,.72-2c.13-.22.24-.46.47-.9a3,3,0,0,0-.89.63,39.45,39.45,0,0,1-7.76,5.3,23.31,23.31,0,0,1-5.94,2.19,10.21,10.21,0,0,1-5.12-.12,6.64,6.64,0,0,1-2.48-1.3,5.94,5.94,0,0,1-2.06-5.81,10.32,10.32,0,0,1,1.12-3.09,33.27,33.27,0,0,1,3.12-4.84c1.43-1.87,2.89-3.71,4.34-5.57.22-.28.43-.56.64-.85-.27-.29-.45,0-.59.09-2.47,1.53-5,3-7.58,4.29a68,68,0,0,1-16.61,6.13,38.37,38.37,0,0,1-11,.8,23.43,23.43,0,0,1-7.09-1.62,11.55,11.55,0,0,1-6.23-5.46,9.83,9.83,0,0,1-.8-7.42,18.46,18.46,0,0,1,6.26-9.33,28.45,28.45,0,0,1,8.41-4.63,36.27,36.27,0,0,1,8.32-2,25.06,25.06,0,0,1,12.59,1.58,11.06,11.06,0,0,1,4.09,2.71,5.74,5.74,0,0,1,1.68,4,5.4,5.4,0,0,1-1.95,4.12,9.49,9.49,0,0,1-2.84,1.64,19.82,19.82,0,0,1-4.67,1.15,55.26,55.26,0,0,1-10.68.31c-2.9-.17-5.8-.39-8.68-.75-.42-.05-.85-.05-1.31-.08a12.48,12.48,0,0,0-1.72,5.84,8.22,8.22,0,0,0,.18,1.63,5.68,5.68,0,0,0,2.06,3.34,10.93,10.93,0,0,0,4.76,2.19,19.66,19.66,0,0,0,6.67.13,43.75,43.75,0,0,0,12.88-4,167,167,0,0,0,17.34-9.45,4.09,4.09,0,0,0,1.12-1q1.49-1.9,3-3.79l.64-.75,11.21.78c.19.41-.13.54-.29.73-2.46,2.8-4.95,5.57-7.39,8.39-3,3.47-6,7-8.68,10.69-1,1.3-1.83,2.65-2.67,4a8.79,8.79,0,0,0-.9,2,1.67,1.67,0,0,0,1.55,2.34,6.62,6.62,0,0,0,2.89-.37,17.11,17.11,0,0,0,3.69-1.82,49.88,49.88,0,0,0,6.95-5.42,110.2,110.2,0,0,0,12-13.06c1.15-1.44,2.26-2.92,3.38-4.38.26-.34.53-.67.81-1l10.68.7c.18.37-.12.54-.28.73-1.54,1.83-3.11,3.64-4.66,5.46-3.45,4.08-6.94,8.11-10.18,12.36-1.22,1.58-2.36,3.23-3.49,4.88a16,16,0,0,0-1.23,2.27,7.08,7.08,0,0,0-.54,1.67,1.23,1.23,0,0,0,1,1.57,4.48,4.48,0,0,0,2.21-.13,15.66,15.66,0,0,0,3.36-1.39,54.53,54.53,0,0,0,8-5.34c4.39-3.45,8.55-7.15,12.64-10.94,1.18-1.1,2.31-2.24,3.52-3.3a3.7,3.7,0,0,0,1.14-1.86q2.58-9,5.2-18,1.63-5.66,3.28-11.3c.12-.41.25-.82.39-1.27q4.8-1.63,9.58-3.25a1,1,0,0,1,.35,0c.15.35,0,.63-.13.92q-2.16,6.84-4.34,13.67c-.78,2.43-1.52,4.87-2.33,7.28-.68,2-1.44,4-2.17,6a2.44,2.44,0,0,1-.32.47c0,.11.06.22.08.33l.08,0Zm97.93-32.43c0-.32,0-.63,0-.94a50.89,50.89,0,0,0-1.8-10.53,38.35,38.35,0,0,0-3.12-8.22,21.17,21.17,0,0,0-3.78-5.22,6.77,6.77,0,0,0-2.11-1.48,3,3,0,0,0-3,.3,5.5,5.5,0,0,0-1.54,1.61,8.39,8.39,0,0,0-1.12,2.95,19.51,19.51,0,0,0-.13,5.86,49.47,49.47,0,0,0,1.07,6.25,42.72,42.72,0,0,0,3.53,10.07,24,24,0,0,0,3.76,5.38,7.7,7.7,0,0,0,2.52,1.9,2.87,2.87,0,0,0,3.1-.35,7,7,0,0,0,1.15-1.16,5.91,5.91,0,0,0,1-2.12A13.55,13.55,0,0,0,393.61,379.21ZM454,273.81h.58a3.35,3.35,0,0,0,3.29-2.68A5.76,5.76,0,0,0,458,270a8.53,8.53,0,0,0-1-4.08,23.79,23.79,0,0,0-3-4.65,50.68,50.68,0,0,0-5.27-5.69,31.1,31.1,0,0,0-6-4.51,17.7,17.7,0,0,0-5.23-2.05,9.38,9.38,0,0,0-1.4-.16A3,3,0,0,0,433,251.2a7.29,7.29,0,0,0-.14,3.38,13,13,0,0,0,1.63,4.38,36.15,36.15,0,0,0,11.38,12,17.85,17.85,0,0,0,4,2A12.44,12.44,0,0,0,454,273.81ZM196,411.4a3.46,3.46,0,0,0,.51.13,38.58,38.58,0,0,0,8.45-.47,24.3,24.3,0,0,0,6.6-2,12.87,12.87,0,0,0,4-2.82,6.23,6.23,0,0,0,1.44-2.39,1.62,1.62,0,0,0-.89-2.15,4.92,4.92,0,0,0-1.93-.49,12,12,0,0,0-4.17.55,29.42,29.42,0,0,0-13.72,9.14A3.07,3.07,0,0,0,196,411.4Zm108.84,17.81a12.14,12.14,0,0,0-2.27,1,19.26,19.26,0,0,0-4.33,2.81,6.34,6.34,0,0,0-1.33,1.63,2.88,2.88,0,0,0-.33,1.82,1.23,1.23,0,0,0,1.83,1.13,3.11,3.11,0,0,0,.83-.43,12.78,12.78,0,0,0,1.4-1.24A29,29,0,0,0,304.82,429.21Z" transform="translate(-33 -15)" style="fill:#9fb4b4"/><path d="M256.49,125.74a61.07,61.07,0,0,1-.74-8.26c-.05-1.45-.14-2.9-.14-4.35,0-1.84.07-3.68.15-5.52a85.3,85.3,0,0,1,1.94-15.27,59.09,59.09,0,0,1,7.07-18.11,41.75,41.75,0,0,1,10.87-12.09,29.64,29.64,0,0,1,8.27-4.4,26.54,26.54,0,0,1,5.3-1.09,18.4,18.4,0,0,1,4.45,0,11.85,11.85,0,0,1,6.12,2.53,7.42,7.42,0,0,1,2.8,5,5,5,0,0,1-.55,3,4.28,4.28,0,0,1-3,2.21,9.58,9.58,0,0,1-1.51.18,18.48,18.48,0,0,0-7.72,2.28,33.12,33.12,0,0,0-7.4,5.59,64.91,64.91,0,0,0-8.17,10A125.68,125.68,0,0,0,263.57,107a150.16,150.16,0,0,0-6.83,18.15C256.68,125.33,256.57,125.53,256.49,125.74Z" transform="translate(-33 -15)" style="fill:#9fb4b4"/><path d="M410.49,280.41a5.31,5.31,0,0,1-5.18-5.55,5.5,5.5,0,0,1,5.59-5.46,5.21,5.21,0,0,1,5.24,5.47A5.56,5.56,0,0,1,410.49,280.41Z" transform="translate(-33 -15)" style="fill:#9fb4b4"/><path d="M295.68,411.64l.16.3-.08,0c0-.11-.05-.22-.08-.33Z" transform="translate(-33 -15)" style="fill:#fff"/></svg>