<svg id="b9d31664-ca07-4700-b417-f61cd7a1b7fa" data-name="Layer 1" xmlns="http://www.w3.org/2000/svg" xmlns:xlink="http://www.w3.org/1999/xlink" viewBox="0 0 175.78 174.72"><defs><linearGradient id="a829f5f1-1948-4608-aefe-5fdaa099073d" x1="158.07" y1="295.24" x2="333.84" y2="295.24" gradientUnits="userSpaceOnUse"><stop offset="0" stop-color="#dff2b5"/><stop offset="1" stop-color="#135058"/></linearGradient><linearGradient id="a40d19db-8a66-4449-a00f-61f4a51afb75" x1="182.91" y1="295.88" x2="308.95" y2="295.88" xlink:href="#a829f5f1-1948-4608-aefe-5fdaa099073d"/><linearGradient id="bff34353-daac-4ffa-a736-4390a96ec872" x1="204.15" y1="295.99" x2="288.14" y2="295.99" xlink:href="#a829f5f1-1948-4608-aefe-5fdaa099073d"/><linearGradient id="fc075e8b-d7c1-4b7d-ab28-a2185952d758" x1="232.66" y1="295.86" x2="259.59" y2="295.86" xlink:href="#a829f5f1-1948-4608-aefe-5fdaa099073d"/></defs><title>favico</title><path d="M333.83,294.88c.34,45.05-36.29,87.68-88.2,87.72s-87.34-43.16-87.56-86.6c-.26-50.91,39.9-88.2,87.94-88.12C294.79,208,334.53,246.73,333.83,294.88ZM244.56,223l-.7,0c-2.07.16-4.14.46-6.19.7-24.08,2.8-44.68,16-56.15,37.44-6.66,12.45-8.94,25.91-7.91,40a68.6,68.6,0,0,0,17.45,41.41c15.69,17.7,35.53,26.22,59.36,24.88a69.87,69.87,0,0,0,36.52-12.29c18.74-13,29.63-30.85,31.77-53.77,1.38-14.85-1.3-29-8.86-41.82-13-22.05-34.77-34-59.91-36.24A46,46,0,0,0,244.56,223Z" transform="translate(-158.07 -207.88)" style="fill:url(#a829f5f1-1948-4608-aefe-5fdaa099073d)"/><path d="M270.92,238.64c-3.29,3.41-6.45,6.75-9.71,10a2.67,2.67,0,0,1-2.14.42c-14.06-3.3-27.37-1.79-39.64,6.19-26.46,17.22-29.32,55-6.08,76.33,20.83,19.15,51.53,15.64,68.58-2.9a48.75,48.75,0,0,0,.1-65.88,45.59,45.59,0,0,0-12.38-9.56c-.46-.24-.9-.52-1.61-.92l10.61-10.13c2.44,1.68,5,3.2,7.24,5,13,10.31,20.35,23.8,22.48,40.22a61.17,61.17,0,0,1-6.23,36.82c-10.46,20.1-27.48,30.81-49.71,33.33a60.81,60.81,0,0,1-46-13.07c-12.18-9.64-19.57-22.53-22.35-37.78-3.44-18.83.73-36.08,13-50.79,17-20.37,47-27.37,71.7-18.19C269.55,238,270.28,238.37,270.92,238.64Z" transform="translate(-158.07 -207.88)" style="fill:url(#a40d19db-8a66-4449-a00f-61f4a51afb75)"/><path d="M252.53,268.66c2.42-2.63,4.8-5.37,7.36-7.94,3.73-3.74,3.84-3.76,8.32-.79,12.91,8.56,19.76,20.61,19.92,36.12.25,23.48-20.6,43.17-44,41.88a42,42,0,0,1-4.43-83.52c4.9-.75,11.86-.48,15.6.65-.42.47-.77.9-1.16,1.29-3.49,3.5-6.94,7-10.53,10.45a8.07,8.07,0,0,1-3.59,1.93c-11.25,2.61-18.79,9.26-21.42,20.54-4.37,18.71,9.7,35.27,27.86,34.75,13.1-.37,23.91-8.42,27.28-20.59a27.66,27.66,0,0,0-19.38-34.26C253.6,269,252.89,268.76,252.53,268.66Z" transform="translate(-158.07 -207.88)" style="fill:url(#bff34353-daac-4ffa-a736-4390a96ec872)"/><path d="M246.16,282.52a13.72,13.72,0,0,1,13.43,13.74c0,6.8-6.33,12.92-13.31,12.94-7.26,0-13.57-6.12-13.62-13.22A13.62,13.62,0,0,1,246.16,282.52Z" transform="translate(-158.07 -207.88)" style="fill:url(#fc075e8b-d7c1-4b7d-ab28-a2185952d758)"/></svg>