<svg xmlns="http://www.w3.org/2000/svg" viewBox="0 0 474.71 104.75"><title>app_logo</title><polygon points="73.93 84.06 36.97 104.75 0 84.06 0 42.68 36.97 21.99 73.93 42.68 73.93 84.06" style="fill:#2e2e2e"/><polygon points="73.93 0.02 45.83 22.02 73.81 35.67 73.93 0.02" style="fill:#2e2e2e"/><polygon points="0 0 0.04 35.69 28.02 22.04 0 0" style="fill:#2e2e2e"/><path d="M224.64,255.68c0-13.53,9.18-23.93,22.8-23.93,8.32,0,13.24,3.4,16.74,7.94L259.45,244a13.56,13.56,0,0,0-11.64-5.95c-9.74,0-15.79,7.47-15.79,17.59s6,17.68,15.79,17.68a13.78,13.78,0,0,0,11.64-6l4.73,4.35c-3.5,4.54-8.42,7.95-16.74,7.95C233.82,279.7,224.64,269.3,224.64,255.68Z" transform="translate(-132.28 -194.8)" style="fill:#2e2e2e"/><path d="M266.63,255.68c0-13.24,8.7-23.93,22.61-23.93s22.6,10.69,22.6,23.93-8.7,24-22.6,24S266.63,268.92,266.63,255.68Zm37.74,0c0-9.27-5.39-17.59-15.13-17.59S274,246.41,274,255.68s5.49,17.68,15.23,17.68S304.37,265,304.37,255.68Z" transform="translate(-132.28 -194.8)" style="fill:#2e2e2e"/><path d="M318.55,278.56V232.88h7.09v7.38c3.69-4.82,9-8.32,15.23-8.32v7.28a12.46,12.46,0,0,0-2.84-.28c-4.35,0-10.31,3.59-12.39,7.28v32.34Z" transform="translate(-132.28 -194.8)" style="fill:#2e2e2e"/><path d="M342.29,255.68c0-13.24,9.45-23.93,22.5-23.93,13.81,0,21.95,10.78,21.95,24.5V258h-37c.57,8.61,6.62,15.8,16.45,15.8a20,20,0,0,0,14.1-5.77l3.4,4.63c-4.54,4.54-10.69,7-18.16,7C352,279.7,342.29,270,342.29,255.68Zm22.41-18.07c-9.74,0-14.56,8.23-14.94,15.23h30C379.64,246,375.1,237.61,364.7,237.61Z" transform="translate(-132.28 -194.8)" style="fill:#2e2e2e"/><path d="M386.26,280.46l22.41-66.87h5.58l-22.41,66.87Z" transform="translate(-132.28 -194.8)" style="fill:#2e2e2e"/><path d="M416.52,278.56V215.48h7.1v24.31a19,19,0,0,1,15.41-8c11.92,0,20.33,9.46,20.33,24,0,14.85-8.41,23.93-20.33,23.93a19.2,19.2,0,0,1-15.41-7.95v6.81Zm20.71-5.2c9.27,0,14.76-7.47,14.76-17.59s-5.49-17.68-14.76-17.68a16.94,16.94,0,0,0-13.61,7.37v20.71C426.07,270.15,431.65,273.36,437.23,273.36Z" transform="translate(-132.28 -194.8)" style="fill:#22b373"/><path d="M494.64,278.56v-5.2a19.78,19.78,0,0,1-15.13,6.34c-7.76,0-16-5.2-16-15.13,0-10.22,8.23-15,16-15,6.24,0,11.44,2,15.13,6.24v-8.23c0-6.14-4.92-9.64-11.54-9.64-5.49,0-9.93,2-14,6.33l-3.31-4.91c4.92-5.11,10.78-7.57,18.26-7.57,9.64,0,17.68,4.35,17.68,15.42v31.39Zm0-9.64v-8.61c-2.74-3.78-7.57-5.67-12.58-5.67-6.62,0-11.26,4.16-11.26,10s4.64,9.93,11.26,9.93C487.07,274.59,491.9,272.7,494.64,268.92Z" transform="translate(-132.28 -194.8)" style="fill:#22b373"/><path d="M507.12,272.51l3.69-5.11a20.67,20.67,0,0,0,15,6.53c7,0,10.79-3.31,10.79-7.85,0-11.06-28.28-4.26-28.28-21.18,0-7.1,6.15-13.15,17-13.15,7.76,0,13.24,2.93,16.93,6.62L539,243.29c-2.74-3.31-7.75-5.77-13.62-5.77-6.24,0-10.12,3.12-10.12,7.19,0,10,28.28,3.4,28.28,21.18,0,7.66-6.15,13.81-18,13.81C518.09,279.7,511.75,277.43,507.12,272.51Z" transform="translate(-132.28 -194.8)" style="fill:#22b373"/><path d="M547.59,255.68c0-13.24,9.46-23.93,22.51-23.93,13.81,0,21.94,10.78,21.94,24.5V258h-37c.56,8.61,6.62,15.8,16.45,15.8a20,20,0,0,0,14.09-5.77L589,272.7c-4.54,4.54-10.69,7-18.16,7C557.34,279.7,547.59,270,547.59,255.68ZM570,237.61c-9.74,0-14.57,8.23-14.94,15.23h30C585,246,580.41,237.61,570,237.61Z" transform="translate(-132.28 -194.8)" style="fill:#22b373"/><path d="M596.58,274.31a5.2,5.2,0,1,1,5.2,5.2A5.25,5.25,0,0,1,596.58,274.31Z" transform="translate(-132.28 -194.8)" style="fill:#ef663e"/></svg>